<svg width="1403" height="1985" viewBox="0 0 1403 1985" fill="none" xmlns="http://www.w3.org/2000/svg">
<path d="M856.934 1636.67C841.016 1647.07 835.36 1659.75 830.618 1676.16C829.786 1679.06 828.973 1682.08 828.141 1685.21C816.922 1727.51 814.082 1771.97 819.332 1815.4C822.691 1843.08 829.336 1870.38 839.234 1896.46C847.074 1917.12 852.547 1940.97 873.218 1939.48C877.71 1933.34 881.831 1928.27 884.281 1926.12C896.562 1915.33 911.461 1907.46 927.449 1903.92C950.773 1898.77 968.668 1902.58 987.574 1916.35C989.773 1917.96 991.914 1919.66 994.008 1921.4C995.43 1910.69 995.145 1899.61 994.629 1890.49C991.375 1832.91 980.816 1775.77 963.473 1720.79C957.778 1702.74 939.301 1639.38 923.266 1609.34C919.45 1612.03 915.184 1614.22 910.5 1615.72C892.367 1621.51 873.063 1626.13 856.934 1636.67Z" fill="#EBF2E5"/>
<path d="M397.988 1902.15C412.136 1898.57 427.422 1899.34 440.926 1904.91C451.067 1909.1 460.153 1915.72 470.614 1919.04C506.927 1930.55 533.633 1903.28 533.923 1869.87C534.306 1825.39 534.708 1780.9 535.103 1736.42C535.263 1718.63 536.154 1698.64 533.974 1681.06C532.572 1669.75 527.99 1658.41 519.247 1651.11C510.184 1643.53 498.298 1641.33 486.63 1638.52C482.263 1637.48 477.931 1636.34 473.79 1634.82C462.188 1630.54 451.548 1622.54 446.247 1611.37C441.934 1602.27 441.516 1593.84 443.852 1586.14C436.782 1588.14 430.332 1590.83 424.875 1594.41C407.547 1605.78 380.687 1698.34 373.609 1720.79C356.265 1775.77 345.703 1832.91 342.453 1890.48C341.937 1899.61 341.648 1910.69 343.07 1921.4C345.168 1919.65 347.304 1917.96 349.511 1916.35C365.133 1904.97 380.109 1900.49 397.988 1902.15Z" fill="#EBF2E5"/>
<path d="M836.016 1624.46C833.485 1625.54 830.922 1626.54 828.379 1627.48C813.945 1632.77 798.356 1637.9 788.891 1650C775.997 1666.5 772.43 1695.57 767.641 1715.53C766.934 1718.48 766.258 1721.43 765.61 1724.39C760.149 1749.48 756.934 1775.07 755.962 1800.73C753.732 1859.45 764.888 1917.34 782.54 1973.13C805.099 1977.39 830.274 1978.74 852.056 1978.64C851.833 1978.56 851.661 1978.48 851.56 1978.39C851.037 1977.98 851.126 1976.82 851.634 1975.19C853.681 1968.61 863.044 1953.63 871.599 1941.7C872.142 1940.94 872.677 1940.21 873.22 1939.48C852.548 1940.96 847.075 1917.12 839.236 1896.46C829.338 1870.38 822.693 1843.08 819.334 1815.39C814.084 1771.97 816.924 1727.51 828.143 1685.21C828.975 1682.08 829.788 1679.06 830.62 1676.16C835.362 1659.74 841.018 1647.07 856.936 1636.67C873.065 1626.13 892.37 1621.51 910.502 1615.71C915.186 1614.22 919.451 1612.03 923.268 1609.33C919.366 1602.01 915.604 1596.64 912.209 1594.41C904.631 1589.44 895.17 1586.15 884.736 1584.12C884.451 1596.55 883.279 1605.64 880.9 1608.8C873.008 1619.29 852.805 1623.02 836.016 1624.46Z" fill="#C6CAD6"/>
<path d="M755.961 1800.73C756.934 1775.07 760.149 1749.48 765.609 1724.39C766.257 1721.43 766.933 1718.48 767.64 1715.53C772.429 1695.57 775.996 1666.5 788.89 1650C798.355 1637.9 813.945 1632.77 828.378 1627.48C830.921 1626.54 833.483 1625.54 836.015 1624.46C833.175 1624.7 830.445 1624.9 827.878 1625.02C824.589 1625.2 821.55 1625.31 818.995 1625.38C816.339 1625.46 813.561 1625.48 810.745 1625.43C800.831 1625.28 790.288 1624.18 781.503 1620.54C777.765 1611.2 774.194 1602.49 770.706 1594.09C768.249 1595 766.483 1595.81 765.632 1596.45C733.702 1620.59 715.546 1794.13 712.937 1831.85C710.749 1863.4 710.41 1907.18 720.945 1937.61C727.609 1956.84 752.785 1967.52 782.539 1973.13C764.887 1917.34 753.73 1859.45 755.961 1800.73Z" fill="#A1A8C3"/>
<path d="M561.527 1700.18C553.882 1671.9 538.094 1642.79 510.543 1632.87C501.32 1629.55 491.422 1628.64 481.914 1626.27C475.562 1624.69 469.871 1621.86 465.055 1618.15C459.25 1615.86 454.34 1612.84 451.297 1608.8C448.988 1605.73 447.813 1597.07 447.484 1585.17C446.254 1585.47 445.05 1585.81 443.851 1586.14C441.515 1593.84 441.933 1602.27 446.246 1611.37C451.547 1622.54 462.187 1630.54 473.789 1634.82C477.93 1636.34 482.262 1637.48 486.629 1638.52C498.297 1641.33 510.184 1643.53 519.246 1651.11C527.988 1658.41 532.57 1669.75 533.973 1681.06C536.153 1698.64 535.262 1718.63 535.102 1736.42C534.707 1780.9 534.305 1825.39 533.922 1869.87C533.633 1903.28 506.926 1930.56 470.613 1919.04C460.152 1915.72 451.066 1909.1 440.925 1904.91C427.421 1899.34 412.136 1898.57 397.987 1902.15C401.745 1902.5 405.581 1903.02 409.628 1903.92C422.624 1906.79 434.874 1912.57 445.605 1920.41C448.082 1922.22 450.5 1924.1 452.796 1926.12C461.265 1933.55 489.413 1975.3 485.523 1978.39C485.418 1978.48 485.25 1978.56 485.031 1978.64C532.945 1978.85 597.355 1972.13 613.839 1942.59C598.633 1861.05 583.168 1780.17 561.527 1700.18Z" fill="#C6CAD6"/>
<path d="M538.965 1623.85C531.5 1625.22 523.625 1625.54 516.328 1625.43C515.277 1625.42 514.223 1625.41 513.199 1625.38C501.41 1625.04 480.125 1624.1 465.055 1618.15C469.871 1621.86 475.563 1624.69 481.914 1626.27C491.422 1628.64 501.32 1629.55 510.543 1632.87C538.094 1642.79 553.883 1671.9 561.527 1700.18C583.168 1780.17 598.632 1861.05 613.84 1942.6C614.731 1940.99 615.531 1939.35 616.133 1937.62C626.668 1907.19 626.328 1863.4 624.145 1831.85C621.536 1794.13 603.379 1620.59 571.45 1596.45C570.165 1595.48 566.86 1594.14 562.083 1592.66C558.415 1601.48 554.642 1610.67 550.692 1620.54C547.035 1622.05 543.059 1623.09 538.965 1623.85Z" fill="#A1A8C3"/>
<path d="M859.301 943.766C854.688 957.102 851.207 970.911 848.61 984.758C844.766 1005.3 842.973 1026.52 843.047 1047.82C843.195 1083.35 848.543 1119.14 858.262 1152.53V1152.53C863.821 1127.35 866.184 1097.19 876.18 1073.35C885.477 1051.19 896.641 1028.5 909.813 1008.22C912.547 1004.02 915.458 999.938 918.43 995.907L908.282 987.298C891.805 972.961 875.492 958.43 859.301 943.766Z" fill="#A1A8C3"/>
<path d="M948.008 850.905C942.945 852.468 937.867 854.479 932.863 856.819C933.156 856.967 933.437 857.124 933.722 857.264C933.952 857.377 934.171 857.502 934.402 857.616C935.988 858.393 937.996 859.46 940.367 860.788C949.586 865.921 964.383 874.929 981.82 885.94C983.265 874.401 983.336 862.616 982.113 850.889C981.894 848.807 981.406 846.58 980.961 844.534L980.957 844.499L980.949 844.495C980.945 844.491 980.929 844.491 980.918 844.491C980.93 844.534 980.945 844.581 980.949 844.624C974.859 842.878 951.926 849.69 948.008 850.905Z" fill="#A1A8C3"/>
<path d="M486.355 984.758C482.785 965.684 477.617 946.664 469.855 928.934C458.945 945.997 447.914 962.981 436.703 979.84C431.621 987.485 426.515 995.113 421.375 1002.72C422.641 1004.55 423.938 1006.36 425.152 1008.22C438.328 1028.5 449.488 1051.19 458.785 1073.35C468.781 1097.19 471.148 1127.35 476.711 1152.53V1152.53C486.426 1119.14 491.777 1083.35 491.918 1047.82C492 1026.52 490.203 1005.3 486.355 984.758Z" fill="#A1A8C3"/>
<path d="M371.238 867.355C373.004 865.605 374.492 864.183 375.812 862.964C376.273 862.534 376.785 862.05 377.191 861.694C380.945 858.37 384.55 854.87 388.109 851.307C387.726 851.186 387.343 851.022 386.957 850.905C383.043 849.69 360.113 842.878 354.016 844.624C354.024 844.581 354.043 844.534 354.051 844.491C354.039 844.491 354.024 844.491 354.016 844.495L354.012 844.499L354.004 844.534C353.563 846.581 353.074 848.807 352.859 850.889C351.625 862.686 351.699 874.541 353.175 886.147C360.367 878.449 366.547 872.012 371.238 867.355Z" fill="#A1A8C3"/>
<path d="M75.2539 1346.71C91.2229 1352.12 109.641 1354.24 124.313 1345.94C132.903 1341.08 139.262 1333.17 145.376 1325.41C138.966 1323.29 132.7 1320.72 126.774 1317.47C106.739 1306.46 90.3129 1289.19 79.9109 1268.86C78.4149 1265.95 76.4969 1262.34 74.6839 1258.52C74.1569 1259.3 73.6489 1260.09 73.1179 1260.87C69.1379 1266.71 65.5909 1272.84 62.3989 1279.14C55.9609 1291.84 50.9419 1305.21 46.4379 1318.71C45.6019 1321.22 44.8009 1323.75 43.9929 1326.27C45.5829 1328.46 47.3679 1330.52 49.3329 1332.36C56.5939 1339.16 65.8279 1343.51 75.2539 1346.71Z" fill="#EBF2E5"/>
<path d="M124.313 1345.94C109.641 1354.24 91.2231 1352.12 75.2541 1346.71C65.8281 1343.51 56.5941 1339.16 49.3321 1332.36C47.3671 1330.52 45.5821 1328.46 43.9921 1326.27C43.5431 1327.68 43.0741 1329.08 42.6251 1330.49C42.1481 1332.01 41.8481 1333.38 41.6331 1334.72C41.9301 1334.62 42.2031 1334.46 42.5161 1334.4L42.8481 1334.34C50.2231 1333.27 60.0121 1347.64 59.4891 1354.17C59.4151 1355.14 59.1571 1356.08 58.6761 1357C57.5941 1359.04 55.8991 1361.11 54.0041 1363.14C54.5551 1363.76 55.117 1364.38 55.692 1364.98C57.098 1362.56 58.7971 1360.25 61.3911 1359.38C68.8211 1356.91 81.6181 1369.91 82.2971 1376.76C82.4061 1377.76 82.3171 1378.78 81.9921 1379.82C81.6831 1380.8 81.2341 1381.8 80.7341 1382.82C82.0891 1383.5 83.4491 1384.18 84.8281 1384.78C84.9331 1384.56 85.0351 1384.34 85.1411 1384.12C86.4541 1381.38 87.864 1378.57 90.192 1376.63C94.497 1373.02 101.012 1373.29 106.071 1375.79L106.743 1376.15C110.677 1378.3 113.813 1381.57 116.704 1385.05C117.489 1385.99 117.95 1387.12 118.102 1388.29C118.473 1388.2 118.829 1388.19 119.204 1388.1C122.349 1387.3 125.388 1386.21 128.356 1384.96C128.333 1384.72 128.313 1384.48 128.29 1384.25C127.606 1376.86 126.95 1369.22 129.177 1362.13C132.361 1351.99 140.868 1344.59 148.997 1337.74C152.7 1334.62 156.888 1331.32 161.731 1331.46C166.442 1331.59 168.571 1335.78 169.282 1341.41C169.579 1343.72 169.626 1346.3 169.524 1348.93C173.587 1343.22 177.376 1337.3 181.024 1331.32C168.915 1331.21 156.86 1329.22 145.376 1325.41C139.262 1333.17 132.902 1341.08 124.313 1345.94Z" fill="#C6CAD6"/>
<path d="M176.906 1321.56C175.902 1321.46 174.906 1321.27 173.906 1321.12C164.144 1319.65 154.531 1316.09 145.633 1311.49C144.211 1310.75 142.778 1310.04 141.395 1309.26C133.918 1305.02 126.801 1300.16 120.122 1294.76C113.087 1289.82 106.45 1284.33 100.321 1278.3C92.1571 1270.27 84.8011 1260.84 80.0361 1250.5C78.2661 1253.17 76.4771 1255.84 74.6841 1258.52C76.4971 1262.34 78.4141 1265.95 79.9111 1268.86C90.3131 1289.19 106.739 1306.46 126.774 1317.47C132.7 1320.72 138.965 1323.29 145.376 1325.41C156.86 1329.22 168.915 1331.21 181.024 1331.32C181.43 1330.65 181.856 1329.99 182.258 1329.32C183.832 1326.71 185.559 1324.19 187.281 1321.66C183.832 1321.91 180.367 1321.92 176.906 1321.56Z" fill="#A1A8C3"/>
<path d="M169.281 1341.41C166.332 1343.36 162.875 1344.88 160.402 1347.04C154.769 1351.93 150.754 1358.68 149.043 1365.93C145.969 1378.96 149.133 1392.66 153.664 1405.27C156.062 1411.97 158.867 1418.57 161.359 1425.25C161.988 1423.94 162.429 1422.54 162.675 1421.12C164.562 1410.46 161.441 1399.16 162.991 1388.4C163.866 1382.33 165.202 1376.24 166.475 1370.24C167.291 1366.39 169.198 1357.33 169.522 1348.93C169.625 1346.3 169.578 1343.72 169.281 1341.41Z" fill="#203A73"/>
<path d="M91.797 1413.95C93.539 1409.01 96.399 1404.32 94.668 1399.13C93.332 1395.13 90.906 1391.55 87.477 1389.05C86.344 1388.23 85.082 1387.46 83.977 1386.59C77.836 1399.82 72.7351 1413.53 68.7391 1427.56C67.0361 1433.55 63.6841 1440.68 66.8801 1446.66C69.0791 1450.77 74.3721 1453.52 78.7781 1452.47C83.3131 1439.77 87.27 1426.73 91.797 1413.95Z" fill="#203A73"/>
<path d="M64.6019 1393.53C65.7149 1387.17 65.8719 1379.84 61.4539 1375.12C59.9659 1373.55 58.0789 1372.41 56.4149 1371.01C55.3209 1370.09 54.4739 1369.19 53.8489 1368.3C47.4429 1380.15 41.0439 1392 34.6379 1403.85C31.0479 1410.5 22.3759 1425.82 32.8289 1430.95C39.9149 1434.43 49.4189 1426.71 55.3449 1420.38C59.8049 1411.98 62.9529 1402.89 64.6019 1393.53Z" fill="#203A73"/>
<path d="M43.9529 1348.84C44.5659 1346.03 44.7889 1343.05 44.3279 1340.18C44.0509 1338.5 42.6399 1336.25 42.5149 1334.39C42.2019 1334.46 41.9289 1334.62 41.6319 1334.72C39.1319 1335.59 37.1789 1337.77 35.4839 1339.89C27.0579 1350.41 18.6319 1360.93 10.2029 1371.46C5.70291 1377.08 -5.0271 1389.97 3.8939 1396.55C5.1669 1397.5 6.6209 1397.98 8.1909 1398.12C13.1989 1391.53 19.2339 1385.62 24.9329 1379.56C33.2929 1370.68 41.3439 1360.76 43.9529 1348.84Z" fill="#203A73"/>
<path d="M267.473 1149.67C260.473 1141.51 252.727 1134.02 245.84 1125.72C241.926 1121.02 238.176 1116.14 234.625 1111.13C215.945 1093.48 201.551 1068.81 204.293 1045.04C205.145 1037.63 207.75 1030.31 212.324 1023.32C205.015 1029.75 198.832 1037.94 192.75 1046.18C161.555 1088.41 74.6989 1206.8 74.5509 1226.95C74.4879 1235.18 76.6139 1243.07 80.0349 1250.5C84.8009 1260.84 92.1559 1270.27 100.32 1278.3C106.449 1284.33 113.086 1289.82 120.121 1294.76C126.801 1300.16 133.918 1305.02 141.394 1309.26C142.777 1310.04 144.21 1310.75 145.632 1311.49C149.14 1308.1 154.909 1305.47 157.933 1302.85C163.691 1297.86 168.726 1292.09 173.667 1286.31C205.23 1249.46 236.839 1212.56 265.358 1173.27C272.285 1163.73 275.641 1159.2 267.473 1149.67Z" fill="#EBF2E5"/>
<path d="M319.34 1155.42C317.032 1154.94 315.348 1153.97 313.145 1155.33C311.356 1156.43 309.633 1160.12 308.364 1161.83C294.473 1180.64 280.216 1199.19 265.649 1217.49C237.254 1253.17 207.645 1287.88 176.907 1321.56C180.368 1321.92 183.833 1321.91 187.282 1321.66C190.837 1321.4 194.38 1320.9 197.86 1319.88C217.192 1314.18 307.059 1198.07 339.059 1156.44C340.004 1155.21 340.942 1153.98 341.875 1152.75C338.324 1154.46 334.539 1155.66 330.578 1156.07C326.828 1156.45 323.023 1156.18 319.34 1155.42Z" fill="#C6CAD6"/>
<path d="M335.402 1139.48C311.496 1147.66 282.101 1140.38 260.39 1129.52C251.687 1125.17 242.753 1118.8 234.624 1111.12C238.175 1116.14 241.925 1121.02 245.839 1125.72C252.726 1134.02 260.472 1141.51 267.472 1149.67C275.64 1159.2 272.285 1163.73 265.359 1173.27C236.839 1212.56 205.23 1249.46 173.668 1286.31C168.727 1292.09 163.691 1297.86 157.934 1302.85C154.911 1305.47 149.141 1308.1 145.633 1311.49C154.531 1316.09 164.145 1319.65 173.906 1321.13C223.133 1267.29 269.547 1210.82 312.574 1151.9C312.894 1151.47 313.418 1151.15 313.984 1151.33C327.257 1155.67 337.734 1152.9 346.429 1146.57C353.206 1137.03 358.827 1127.1 360.339 1116.01C355.863 1127.32 346.988 1135.52 335.402 1139.48Z" fill="#C6CAD6"/>
<path d="M328.316 1125.46C325.793 1127.35 323.105 1130.37 319.73 1130.68C304.191 1132.06 287.234 1125.94 271.718 1116.51C265.984 1113.03 260.452 1109.11 255.265 1104.92C244.292 1096.05 234.851 1086.07 228.355 1076.91C222.636 1068.84 217.707 1059.62 217.66 1049.74C217.64 1045.93 228.183 1031.26 243.902 1011.64C241.718 1011.17 239.789 1010.99 238.214 1011.17C227.823 1012.37 219.526 1016.99 212.323 1023.32C207.749 1030.31 205.143 1037.62 204.292 1045.04C201.55 1068.81 215.944 1093.48 234.624 1111.12C242.753 1118.8 251.687 1125.17 260.39 1129.52C282.101 1140.38 311.495 1147.66 335.402 1139.48C346.988 1135.51 355.863 1127.32 360.34 1116.01C360.903 1111.87 360.926 1107.58 360.184 1103.08C359.809 1100.8 358.512 1098.03 356.504 1094.93C348.043 1106.43 338.871 1117.52 328.316 1125.46Z" fill="#A1A8C3"/>
<path d="M313.984 1151.33C313.418 1151.14 312.894 1151.47 312.574 1151.9C269.547 1210.82 223.133 1267.29 173.906 1321.12C174.906 1321.27 175.902 1321.46 176.906 1321.56C207.644 1287.88 237.254 1253.17 265.648 1217.49C280.214 1199.19 294.472 1180.64 308.363 1161.83C309.633 1160.12 311.355 1156.43 313.144 1155.33C315.347 1153.97 317.031 1154.94 319.339 1155.42C323.023 1156.18 326.827 1156.45 330.577 1156.07C334.538 1155.66 338.323 1154.46 341.874 1152.75C343.429 1150.7 344.952 1148.64 346.429 1146.57C337.734 1152.9 327.258 1155.67 313.984 1151.33Z" fill="#1F2A50"/>
<path d="M228.355 1076.91C234.851 1086.07 244.293 1096.05 255.265 1104.92C256.956 1103.2 259.117 1101.5 261.894 1099.84C277.39 1090.56 292.96 1081.77 307.664 1071.2C336.144 1050.72 361.973 1026.22 381.898 997.224C396.156 976.482 411.816 952.083 411.746 925.806C411.699 906.228 384.746 884.078 372.93 869.496C372.364 868.793 371.801 868.074 371.239 867.355C366.548 872.011 360.368 878.449 353.176 886.148C322.613 918.863 273.852 974.246 243.903 1011.64C228.184 1031.26 217.641 1045.93 217.661 1049.74C217.707 1059.63 222.637 1068.84 228.355 1076.91Z" fill="#203A73"/>
<path d="M371.238 867.356C371.801 868.075 372.363 868.794 372.929 869.497C384.745 884.079 411.698 906.227 411.745 925.806C411.815 952.083 396.155 976.482 381.897 997.224C361.971 1026.22 336.143 1050.72 307.663 1071.2C292.96 1081.77 277.39 1090.56 261.893 1099.84C259.116 1101.5 256.955 1103.2 255.264 1104.92C260.452 1109.11 265.983 1113.03 271.717 1116.51C312.494 1103.87 347.076 1074.83 374.405 1042.15C389.471 1024.13 398.479 1005.08 410.741 985.752C420.94 969.678 443.003 934.404 433.034 914.311C427.596 903.358 408.026 891.795 398.815 883.557C391.147 876.69 383.479 869.83 375.811 862.967C374.492 864.185 373.004 865.606 371.238 867.356Z" fill="#20325F"/>
<path d="M469.855 928.934C469.054 927.094 468.363 925.204 467.5 923.395C461.406 910.661 453.617 898.454 444.234 887.875C443.66 887.227 443.011 886.613 442.418 885.973C428.086 870.567 408.062 857.723 388.109 851.309C384.55 854.872 380.945 858.372 377.191 861.696C376.785 862.051 376.273 862.536 375.812 862.966C383.48 869.829 391.148 876.689 398.816 883.556C408.027 891.794 427.597 903.357 433.035 914.31C443.004 934.404 420.941 969.677 410.742 985.751C398.48 1005.08 389.472 1024.13 374.406 1042.15C347.078 1074.83 312.496 1103.87 271.718 1116.51C287.234 1125.94 304.191 1132.06 319.73 1130.68C323.105 1130.37 325.793 1127.36 328.316 1125.46C338.871 1117.52 348.043 1106.43 356.504 1094.93C363.219 1085.8 369.496 1076.42 375.59 1068.1C391.313 1046.64 406.488 1024.77 421.375 1002.72C426.516 995.114 431.621 987.485 436.703 979.84C447.914 962.98 458.945 945.996 469.855 928.934Z" fill="#1F2A50"/>
<path d="M153.664 1405.27C149.133 1392.66 145.969 1378.96 149.043 1365.93C150.754 1358.68 154.77 1351.93 160.402 1347.04C162.875 1344.88 166.332 1343.36 169.281 1341.41C168.57 1335.78 166.441 1331.59 161.73 1331.47C156.886 1331.32 152.699 1334.62 148.996 1337.75C140.867 1344.59 132.359 1352 129.176 1362.13C126.949 1369.22 127.606 1376.86 128.289 1384.25C128.312 1384.48 128.332 1384.72 128.355 1384.96C129.531 1397.64 130.937 1410.75 137.445 1421.67C141.258 1428.07 148.726 1433.93 155.609 1431.07C158.199 1429.99 160.136 1427.8 161.359 1425.25C158.867 1418.57 156.063 1411.97 153.664 1405.27Z" fill="#1F2A50"/>
<path d="M59.4879 1354.17C60.0109 1347.64 50.2219 1333.27 42.8469 1334.34L42.5149 1334.39C42.6399 1336.25 44.0499 1338.5 44.3279 1340.18C44.7889 1343.05 44.5659 1346.03 43.9529 1348.84C41.3439 1360.76 33.2929 1370.68 24.9329 1379.56C19.2339 1385.62 13.1989 1391.53 8.19092 1398.13C15.8899 1398.87 26.2849 1391.27 30.8749 1387.18C36.0589 1382.56 40.6759 1377.37 45.2299 1372.15C47.6639 1369.36 51.0779 1366.28 54.0029 1363.14C55.8979 1361.11 57.5929 1359.04 58.6749 1357C59.1559 1356.08 59.4139 1355.14 59.4879 1354.17Z" fill="#1F2A50"/>
<path d="M82.2971 1376.76C81.6171 1369.91 68.8201 1356.91 61.3911 1359.38C58.7971 1360.25 57.0981 1362.56 55.6921 1364.98C55.3991 1365.49 55.1021 1365.99 54.8291 1366.49C54.5051 1367.1 54.1731 1367.7 53.8491 1368.3C54.4741 1369.19 55.3221 1370.09 56.4151 1371.01C58.0791 1372.41 59.9661 1373.55 61.4541 1375.13C65.8721 1379.84 65.7161 1387.17 64.6021 1393.53C62.9541 1402.9 59.8051 1411.99 55.3441 1420.38C56.7821 1418.85 58.0001 1417.4 58.9341 1416.21C63.4301 1410.47 67.2271 1404.24 70.9501 1397.99C73.6801 1393.4 78.2161 1387.93 80.7351 1382.82C81.2351 1381.81 81.6841 1380.8 81.9931 1379.83C82.3161 1378.78 82.4061 1377.76 82.2971 1376.76Z" fill="#1F2A50"/>
<path d="M106.742 1376.15L106.07 1375.79C101.011 1373.29 94.4959 1373.02 90.1909 1376.63C87.8629 1378.57 86.4529 1381.37 85.1399 1384.12C85.0349 1384.34 84.9329 1384.56 84.8269 1384.78C84.5459 1385.38 84.2529 1385.98 83.9749 1386.59C85.0799 1387.46 86.3419 1388.23 87.4749 1389.05C90.9049 1391.55 93.3299 1395.13 94.6659 1399.13C96.3959 1404.32 93.5369 1409.01 91.7949 1413.95C87.2679 1426.73 83.3109 1439.76 78.7749 1452.47C79.7589 1452.23 80.7089 1451.81 81.5639 1451.17C87.0989 1447.01 91.6339 1436.81 95.3649 1431C103.451 1418.4 110.845 1405.35 117.502 1391.95C118.076 1390.8 118.26 1389.52 118.1 1388.29C117.948 1387.12 117.487 1385.99 116.702 1385.05C113.813 1381.57 110.676 1378.3 106.742 1376.15Z" fill="#1F2A50"/>
<path d="M1224.05 703.215C1242.77 706.149 1261.34 711.43 1277.61 721.141C1286.99 726.746 1295.52 733.965 1302.4 742.438C1304.08 740.997 1305.76 739.512 1307.18 737.864C1308.84 735.95 1310.41 733.938 1311.83 731.837C1316.25 725.341 1319.38 718.001 1319.92 710.06C1320.91 695.529 1313.15 681.505 1302.53 671.533C1295.11 664.56 1286.38 659.275 1277.34 654.494C1276.98 658.603 1276.25 662.642 1274.64 666.42C1270.45 676.186 1261.24 682.697 1252.48 688.697C1248.47 691.431 1243.98 694.295 1239.17 693.674C1235.37 693.174 1233.54 690.201 1232.91 686.057C1232.63 684.209 1232.64 682.092 1232.76 679.901C1226.66 686.788 1221.07 694.139 1215.67 701.589C1215.4 701.972 1215.09 702.343 1214.81 702.722C1217.89 702.492 1221.11 702.754 1224.05 703.215Z" fill="#EBF2E5"/>
<path d="M1351.23 706.624C1344.25 706.018 1338.35 690.772 1340.23 684.905C1340.43 684.284 1340.71 683.682 1341.09 683.128L1341.58 682.495C1342.8 681.089 1344.45 679.765 1346.26 678.495C1345.96 678.101 1345.65 677.71 1345.34 677.323C1344.07 678.866 1342.6 680.19 1340.7 680.651C1333.54 682.397 1322.57 669.21 1322.47 662.745C1322.45 661.788 1322.61 660.843 1323 659.893L1323.09 659.678C1323.29 659.205 1323.55 658.729 1323.81 658.248C1323.27 657.896 1322.72 657.596 1322.19 657.256C1321.58 658.666 1320.83 660.006 1319.8 661.139C1316.25 665.045 1310.15 665.643 1305.12 663.963L1304.45 663.725C1300.51 662.221 1297.16 659.58 1294.03 656.709C1292.27 655.119 1291.63 652.631 1292.38 650.389C1292.69 649.487 1293.03 648.6 1293.34 647.698C1290.12 647.592 1286.83 647.686 1283.39 648.253C1281.45 648.569 1279.53 648.987 1277.64 649.487C1277.59 651.163 1277.49 652.827 1277.34 654.491C1286.37 659.272 1295.11 664.557 1302.53 671.53C1313.15 681.503 1320.91 695.526 1319.92 710.057C1319.38 717.998 1316.25 725.338 1311.83 731.834C1310.4 733.936 1308.84 735.947 1307.18 737.861C1305.76 739.509 1304.07 740.994 1302.4 742.435C1307.44 748.638 1311.62 755.498 1314.47 762.978C1316.47 768.244 1317.7 773.818 1318.28 779.447C1318.44 779.256 1318.58 779.064 1318.74 778.869C1323.19 773.381 1327.23 767.568 1330.94 761.553C1338.41 749.432 1344.53 736.526 1350.14 723.451C1351.76 719.658 1353.35 715.846 1354.91 712.025C1355.99 709.416 1356.58 707.166 1356.74 704.845C1355.04 705.952 1353.21 706.792 1351.23 706.624Z" fill="#C6CAD6"/>
<path d="M1302.4 742.439C1295.52 733.966 1286.99 726.748 1277.6 721.142C1261.34 711.431 1242.76 706.15 1224.05 703.216C1221.11 702.755 1217.89 702.493 1214.81 702.72C1213.26 704.783 1211.66 706.798 1210.03 708.802C1225.81 708.954 1241.46 715.939 1254.72 724.978C1261.82 729.818 1268.51 735.255 1274.72 741.197C1280.51 746.021 1285.88 751.322 1290.91 756.931C1291.62 757.716 1292.39 758.443 1293.08 759.244C1299.48 766.67 1305.24 775.06 1309.21 784.033C1309.66 785.053 1310.01 786.103 1310.41 787.135C1310.6 787.635 1310.8 788.135 1310.98 788.639C1313.4 785.576 1315.81 782.51 1318.28 779.451C1317.7 773.822 1316.47 768.248 1314.47 762.982C1311.62 755.501 1307.44 748.642 1302.4 742.439Z" fill="#A1A8C3"/>
<path d="M1232.91 686.055C1234 684.848 1235.2 683.7 1236.27 682.59C1246.57 671.86 1253.68 659.192 1257.62 644.832C1261.98 628.902 1262.64 612.234 1262.3 595.688C1260.07 594.723 1257.67 594.442 1255.24 595.18C1251.18 596.411 1248.35 600.282 1247.21 604.36C1244.27 614.798 1246.24 626.337 1243.62 636.899C1242.14 642.844 1240.2 648.77 1238.33 654.618C1236.91 659.04 1233.31 670.501 1232.76 679.899C1232.64 682.09 1232.63 684.207 1232.91 686.055Z" fill="#203A73"/>
<path d="M1321.74 622.274C1323.94 616.782 1328.73 597.309 1328.75 589.77C1325.31 587.981 1320.95 587.891 1318.22 590.598C1313.61 595.184 1310.7 605.274 1307.97 611.172C1304.21 619.324 1300.72 627.602 1297.54 635.992C1302.25 635.578 1307.53 636.508 1311.93 634.637C1316.9 632.528 1319.72 627.294 1321.74 622.274Z" fill="#203A73"/>
<path d="M1341.71 652.858C1349.29 648.788 1356.35 643.975 1361.11 636.846C1365.56 630.19 1370.02 623.529 1374.48 616.869C1374.06 616.494 1373.59 616.146 1373.06 615.834C1365.14 611.096 1352.4 622.256 1347.45 627.607C1342.79 632.623 1338.74 638.173 1334.76 643.74C1331.62 648.138 1326.42 653.338 1323.81 658.248C1323.55 658.729 1323.29 659.205 1323.09 659.678C1329.58 658.335 1335.87 655.999 1341.71 652.858Z" fill="#203A73"/>
<path d="M1341.58 682.495L1341.09 683.128C1344.01 685.827 1348.03 687.456 1352.04 687.788C1358.2 688.288 1364.3 686.21 1369.89 683.569C1376.65 680.366 1382.97 676.272 1388.68 671.444C1392.38 668.319 1396.37 661.963 1400.67 658.592L1400.18 657.959C1394.47 651.268 1379.58 657.467 1373.47 660.783C1367.74 663.908 1362.39 667.681 1357.12 671.494C1354.04 673.717 1349.82 675.994 1346.26 678.494C1344.45 679.765 1342.8 681.089 1341.58 682.495Z" fill="#203A73"/>
<path d="M1066.47 876.324C1092.33 876.355 1115.38 886.832 1133.07 903.906C1142.15 906.144 1151.57 907.004 1160.89 906.351C1178.16 905.14 1187.59 897.699 1200.61 887.078C1212.95 877.012 1224.75 866.265 1235.64 854.637C1261.48 827.02 1282.27 793.489 1290.91 756.93C1285.88 751.321 1280.51 746.02 1274.72 741.196C1268.51 735.255 1261.82 729.817 1254.72 724.977C1241.46 715.938 1225.81 708.955 1210.03 708.802C1206.46 708.763 1202.89 708.961 1199.34 709.696C1179.6 713.766 1080.39 822.006 1045.04 860.822C1037 869.65 1029.05 878.603 1024.18 888.74C1035.9 879.966 1054.81 876.309 1066.47 876.324Z" fill="#EBF2E5"/>
<path d="M1293.08 759.243C1292.39 758.442 1291.62 757.716 1290.91 756.93C1282.27 793.489 1261.48 827.02 1235.64 854.637C1224.75 866.266 1212.95 877.012 1200.61 887.078C1187.59 897.699 1178.16 905.141 1160.89 906.351C1151.57 907.003 1142.15 906.144 1133.07 903.906C1139.83 910.414 1145.82 917.851 1150.87 926.078C1160.27 941.398 1166.28 958.711 1167.67 976.465C1168.28 984.317 1167.38 992.574 1164.99 1000.19C1167.89 997.665 1170.68 994.919 1173.4 992.044C1176.15 981.231 1175.85 970.271 1172.39 959.372L1172.71 958.161C1201.5 932.169 1226.9 902.325 1250.66 871.735C1272.25 843.938 1291.71 814.555 1309.21 784.032C1305.25 775.06 1299.48 766.669 1293.08 759.243Z" fill="#C6CAD6"/>
<path d="M1239.95 889.126C1224.74 907.739 1209.1 926.044 1192.15 943.099C1188.32 946.951 1184.43 950.732 1180.46 954.439C1178.39 956.377 1175.75 957.986 1175.55 961.103C1175.41 963.255 1176.89 966.576 1177.22 968.775C1178.22 975.416 1177.92 982.013 1176.69 988.482C1178.37 986.63 1180.02 984.752 1181.67 982.873C1216.27 943.381 1312.66 832.631 1314.49 812.557C1315.23 804.362 1313.77 796.327 1310.98 788.639C1310.8 788.135 1310.6 787.635 1310.41 787.135C1289.71 822.974 1266.15 857.052 1239.95 889.126Z" fill="#C6CAD6"/>
<path d="M1167.67 976.465C1166.28 958.711 1160.27 941.399 1150.87 926.078C1145.82 917.851 1139.83 910.414 1133.07 903.906C1115.38 886.832 1092.33 876.355 1066.47 876.324C1054.81 876.308 1035.9 879.965 1024.18 888.738C1021.04 895.289 1019.21 902.34 1019.47 910.176C1022.06 911.871 1024.68 913.586 1027.29 915.305C1035.05 906.844 1043.41 898.731 1053.16 892.59C1055.84 890.902 1058.77 888.121 1062.16 888.102C1069.83 888.059 1077.69 889.911 1085.46 893.008C1096.19 897.289 1106.7 904.039 1116.22 911.973C1129.93 923.399 1141.59 937.172 1148.74 949.282C1153.77 957.802 1157.92 967.391 1157.13 977.255C1156.84 981.052 1145.1 994.806 1127.82 1013.04C1129.96 1013.69 1131.87 1014.03 1133.44 1013.98C1146.1 1013.57 1156.11 1007.93 1164.99 1000.19C1167.38 992.574 1168.28 984.316 1167.67 976.465Z" fill="#A1A8C3"/>
<path d="M1177.22 968.772C1176.9 966.573 1175.41 963.252 1175.56 961.1C1175.75 957.983 1178.39 956.373 1180.46 954.436C1184.43 950.729 1188.32 946.948 1192.15 943.096C1209.11 926.041 1224.74 907.737 1239.95 889.123C1266.15 857.049 1289.71 822.971 1310.41 787.131C1310.01 786.1 1309.66 785.049 1309.22 784.029C1291.71 814.552 1272.26 843.935 1250.66 871.732C1226.9 902.322 1201.51 932.166 1172.71 958.158L1172.39 959.369C1175.85 970.267 1176.15 981.228 1173.4 992.041C1174.51 990.869 1175.61 989.686 1176.7 988.478C1177.92 982.011 1178.22 975.413 1177.22 968.772Z" fill="#1F2A50"/>
<path d="M928.277 875.065C925.179 879.065 922.078 883.518 921.964 888.581C921.843 894.046 925.218 898.901 928.507 903.269C944.175 924.097 961.214 943.89 979.484 962.488C994.242 977.515 1008.89 982.793 1029.79 986.277C1038.66 987.761 1047.69 984.144 1056.25 978.41C1068.58 970.148 1079.94 957.492 1088.47 949.363C1093.53 944.547 1098.59 939.379 1101.06 932.843C1105.48 921.167 1100.41 907.605 1091.76 898.593C1089.81 896.554 1087.68 894.718 1085.46 893.007C1077.69 889.909 1069.83 888.058 1062.16 888.101C1058.77 888.121 1055.84 890.902 1053.16 892.589C1043.41 898.73 1035.05 906.843 1027.29 915.304C1024.68 913.585 1022.06 911.87 1019.47 910.175C1006.31 901.558 993.481 893.308 981.821 885.941C964.383 874.929 949.587 865.921 940.368 860.789C936.164 865.394 932.109 870.136 928.277 875.065Z" fill="#203A73"/>
<path d="M1101.06 932.845C1098.59 939.38 1093.53 944.548 1088.47 949.365C1079.94 957.494 1068.58 970.15 1056.25 978.412C1047.69 984.146 1038.66 987.764 1029.79 986.279C1008.89 982.795 994.242 977.517 979.484 962.49C961.214 943.892 944.175 924.099 928.507 903.271C925.218 898.904 921.843 894.048 921.964 888.583C922.077 883.52 925.179 879.067 928.277 875.067C932.109 870.137 936.164 865.395 940.367 860.79C937.996 859.462 935.988 858.395 934.402 857.618C934.172 857.505 933.953 857.38 933.722 857.266C917.851 873.098 900.906 894.192 905.019 915.231C906.749 924.067 911.585 931.922 916.679 939.379L917.581 940.699C939.464 972.441 965.628 1006.92 995.241 1031.63C1007.06 1041.48 1020.54 1051.07 1035.92 1051.47C1051.35 1051.87 1065.32 1042.94 1077.96 1034.06C1091.44 1024.6 1104.46 1014.11 1115.31 1001.64C1133.05 981.239 1130.89 960.321 1123.46 935.141C1121.18 927.379 1118.74 919.664 1116.22 911.973C1106.7 904.039 1096.19 897.289 1085.46 893.008C1087.68 894.719 1089.8 896.555 1091.76 898.594C1100.41 907.606 1105.48 921.169 1101.06 932.845Z" fill="#20325F"/>
<path d="M1157.13 977.254C1157.91 967.391 1153.77 957.801 1148.74 949.281C1141.59 937.172 1129.93 923.398 1116.22 911.972C1118.74 919.663 1121.18 927.378 1123.46 935.14C1130.89 960.32 1133.05 981.238 1115.31 1001.64C1104.46 1014.11 1091.44 1024.6 1077.96 1034.06C1065.32 1042.94 1051.36 1051.88 1035.92 1051.47C1020.54 1051.07 1007.07 1041.48 995.241 1031.63C965.628 1006.92 939.464 972.44 917.581 940.698L916.679 939.378C911.585 931.921 906.749 924.065 905.019 915.23C900.906 894.191 917.851 873.097 933.722 857.265C933.437 857.124 933.156 856.968 932.863 856.82C916.98 864.265 901.902 875.281 890.73 887.875C881.347 898.453 873.558 910.66 867.464 923.395C864.319 929.981 861.702 936.825 859.3 943.766C875.491 958.43 891.804 972.961 908.28 987.297L918.428 995.906L994.776 1060.66C1001.37 1066.95 1008.71 1072.04 1015.73 1074.95C1046.46 1087.68 1075.48 1065.98 1096.3 1045.23C1107.82 1033.75 1118.59 1022.77 1127.81 1013.04C1145.1 994.805 1156.84 981.051 1157.13 977.254Z" fill="#1F2A50"/>
<path d="M815.691 1582.12C818.828 1593.04 822.168 1603.91 824.675 1614.96C825.398 1618.15 826.73 1621.56 827.878 1625.02C830.444 1624.9 833.175 1624.7 836.015 1624.46C852.804 1623.02 873.007 1619.29 880.898 1608.81C883.277 1605.64 884.449 1596.56 884.734 1584.12C885.66 1543.74 877.086 1467.64 868.898 1441.23C865.996 1431.86 862.679 1419.76 858.281 1407.63C849.429 1421.37 838.336 1433.49 829.371 1447.14C801.57 1489.48 802.227 1535.28 815.691 1582.12Z" fill="#203A73"/>
<path d="M811.785 1460.21C806.949 1466.23 802.117 1472.02 797.867 1478.05C791.039 1487.75 785.703 1498.04 784.211 1510.92C782.191 1528.46 790.031 1548.28 794.051 1565.25C798.836 1585.52 804.434 1605.59 810.746 1625.43C813.562 1625.48 816.34 1625.46 818.996 1625.38C821.551 1625.31 824.59 1625.19 827.879 1625.02C826.731 1621.55 825.399 1618.14 824.676 1614.96C822.168 1603.91 818.828 1593.04 815.692 1582.12C802.227 1535.28 801.571 1489.48 829.372 1447.14C838.337 1433.49 849.431 1421.37 858.282 1407.63C857.341 1405.04 856.348 1402.45 855.302 1399.88C853.704 1402.94 851.798 1406.1 849.595 1409.54C838.227 1427.32 824.988 1443.79 811.785 1460.21Z" fill="#20325F"/>
<path d="M725.465 1495.32C737.492 1518.28 752.379 1549.94 770.707 1594.09C774.195 1602.49 777.766 1611.2 781.504 1620.53C790.289 1624.18 800.832 1625.28 810.746 1625.43C804.433 1605.59 798.836 1585.51 794.051 1565.25C790.031 1548.28 782.192 1528.46 784.211 1510.92C785.703 1498.04 791.039 1487.74 797.867 1478.05C802.117 1472.02 806.949 1466.23 811.785 1460.21C824.988 1443.79 838.226 1427.32 849.594 1409.54C851.797 1406.1 853.703 1402.94 855.301 1399.88C853.391 1395.18 851.27 1390.6 848.934 1386.24C827.27 1441.3 780.246 1479.52 725.465 1495.32Z" fill="#1F2A50"/>
<path d="M465.055 1618.15C480.125 1624.1 501.41 1625.04 513.199 1625.38C514.222 1625.41 515.277 1625.42 516.328 1625.43C519.625 1593.25 522.922 1561.07 526.223 1528.89C527.586 1515.6 528.938 1502.04 526.09 1488.98C519.649 1459.45 494.664 1439.42 478.965 1414.98C477.27 1412.34 475.582 1409.73 474.09 1407.13C469.598 1419.43 466.238 1431.73 463.293 1441.23C455.039 1467.87 446.383 1545.07 447.484 1585.17C447.812 1597.07 448.988 1605.73 451.297 1608.81C454.34 1612.84 459.25 1615.86 465.055 1618.15Z" fill="#203A73"/>
<path d="M526.09 1488.98C528.938 1502.04 527.586 1515.6 526.223 1528.89C522.922 1561.07 519.625 1593.25 516.328 1625.43C523.625 1625.54 531.5 1625.22 538.965 1623.85C539.649 1620.87 540.75 1617.92 541.832 1615.08C549.27 1595.55 555.402 1575.32 557.285 1554.5C559.172 1533.68 556.629 1512.12 547.433 1493.34C542.984 1484.26 531.249 1468.94 521.031 1452.54C515.14 1443.08 509.808 1433.28 506.609 1424.1C497.863 1411.91 490.523 1398.48 485.015 1383.85C484.952 1383.69 484.902 1383.5 484.839 1383.34C480.609 1390.72 477.093 1398.92 474.089 1407.13C475.581 1409.73 477.269 1412.34 478.964 1414.98C494.664 1439.42 519.648 1459.45 526.09 1488.98Z" fill="#20325F"/>
<path d="M506.609 1424.1C509.808 1433.28 515.14 1443.08 521.031 1452.54C531.25 1468.94 542.984 1484.26 547.433 1493.34C556.628 1512.12 559.171 1533.68 557.285 1554.5C555.402 1575.32 549.269 1595.55 541.832 1615.08C540.75 1617.92 539.648 1620.87 538.965 1623.85C543.059 1623.09 547.035 1622.05 550.692 1620.53C554.641 1610.67 558.415 1601.48 562.083 1592.66C580.333 1548.78 595.149 1517.36 607.118 1494.58C566.926 1482.46 531.078 1458.24 506.609 1424.1Z" fill="#1F2A50"/>
<path d="M530.996 1307.28C518.137 1297.01 497.273 1279.49 489.746 1260.8C464.41 1293.39 471.48 1347.55 484.84 1383.34C484.903 1383.5 484.953 1383.69 485.016 1383.85C490.524 1398.48 497.864 1411.91 506.61 1424.1C531.079 1458.24 566.926 1482.46 607.118 1494.58C626.067 1500.3 645.962 1503.36 666.087 1503.46H667.485H668.88C688.161 1503.37 707.235 1500.57 725.466 1495.32C780.247 1479.52 827.271 1441.3 848.935 1386.24C849.255 1385.43 849.642 1384.67 849.951 1383.85C858.314 1361.66 864.24 1332.25 861.51 1305.3C823.045 1336.49 775.873 1357.02 726.678 1362.94C657.547 1371.26 585.398 1350.75 530.996 1307.28Z" fill="#C6CAD6"/>
<path d="M813.746 1274.36C810.203 1280.43 806.117 1286.22 801.433 1291.61C749.273 1351.67 664.55 1359.63 592.277 1333.32C562.152 1322.36 531.539 1298.6 515.07 1269.38C510.418 1265.25 506.179 1260.65 502.469 1255.49C501.379 1253.98 500.481 1252.36 499.504 1250.79C498.414 1251.7 497.277 1252.55 496.238 1253.53C493.851 1255.8 491.726 1258.25 489.746 1260.8C497.273 1279.49 518.137 1297.01 530.996 1307.29C585.398 1350.75 657.547 1371.26 726.676 1362.94C775.871 1357.02 823.043 1336.49 861.508 1305.3C859.496 1285.41 852.781 1266.85 838.727 1253.53C837.688 1252.55 836.555 1251.7 835.461 1250.79C834.484 1252.36 833.59 1253.98 832.5 1255.49C827.215 1262.84 820.84 1269.04 813.746 1274.36Z" fill="#A1A8C3"/>
<path d="M592.277 1333.32C664.55 1359.63 749.273 1351.67 801.433 1291.61C806.117 1286.22 810.203 1280.43 813.746 1274.36C794.027 1289.16 768.555 1297.04 744.058 1302.65C718.745 1308.44 693.136 1310.76 667.484 1309.57C641.832 1310.76 616.222 1308.44 590.914 1302.65C563.785 1296.45 535.441 1287.47 515.07 1269.38C531.539 1298.6 562.152 1322.36 592.277 1333.32Z" fill="#1F2A50"/>
<path d="M874.578 758.281C871.019 756.906 867.418 755.656 863.848 754.332C817.301 779.277 765.578 794.609 712.887 798.238C659.891 801.89 606.211 793.765 556.465 775.226C542.668 770.081 512.469 759.288 498.532 744.695C485.723 748.953 472.981 753.414 460.387 758.281C440.715 765.89 420.735 774.773 403.063 786.336C439.262 794.133 472.555 814.934 502.641 836.449C538.215 861.89 572.786 890.832 614.102 906.586C657.657 923.188 703.196 919.574 744.864 899.383C808.134 868.723 863.61 804.254 933.157 787.192C915.176 775.215 894.723 766.07 874.578 758.281Z" fill="#EBF2E5"/>
<path d="M936.559 789.512C898.989 798.438 864.739 821.317 833.598 843.938C799.301 868.844 765.274 896.129 724.86 910.485C684.84 924.7 642.864 922.11 604.126 905.172C564.083 887.66 530.36 858.884 494.872 833.989C466.188 813.868 434.47 795.114 400.173 788.312C383.931 799.382 369.798 812.833 359.962 829.879C357.384 834.348 355.173 839.394 354.052 844.491C354.044 844.534 354.025 844.582 354.017 844.625C360.115 842.879 383.044 849.691 386.958 850.906C387.345 851.023 387.728 851.186 388.11 851.307C408.063 857.721 428.087 870.565 442.419 885.971C458.458 894.244 473.251 905.187 486.169 917.796C507.595 938.706 515.603 964.111 534.048 986.705C566.833 1026.88 616.302 1043.6 666.841 1041.75C696.685 1040.66 726.216 1032.82 752.821 1019.28C781.505 1004.68 798.407 988.564 816.13 962.771C840.927 926.701 860.177 884.939 889.989 852.392C908.618 832.064 934.036 815.775 960.567 810.302C953.453 802.516 945.336 795.648 936.559 789.512Z" fill="#EBF2E5"/>
<path d="M848.609 984.758C851.207 970.91 854.687 957.102 859.3 943.766C861.702 936.825 864.32 929.981 867.464 923.395C873.558 910.661 881.347 898.454 890.73 887.875C901.902 875.281 916.98 864.266 932.863 856.82C937.867 854.48 942.945 852.468 948.008 850.906C951.926 849.691 974.86 842.879 980.949 844.625C980.945 844.582 980.929 844.535 980.918 844.492C979.797 839.394 977.582 834.347 975.004 829.879C970.899 822.754 966.016 816.27 960.566 810.305C934.035 815.778 908.617 832.067 889.988 852.395C860.175 884.942 840.925 926.704 816.129 962.774C798.406 988.567 781.504 1004.68 752.82 1019.28C726.215 1032.82 696.683 1040.66 666.84 1041.75C616.301 1043.61 566.832 1026.88 534.047 986.708C515.602 964.114 507.594 938.708 486.168 917.798C473.25 905.189 458.457 894.247 442.418 885.974C443.012 886.615 443.66 887.228 444.234 887.876C453.617 898.454 461.406 910.661 467.5 923.396C468.363 925.205 469.055 927.095 469.855 928.935C477.617 946.665 482.785 965.685 486.355 984.759C490.203 1005.31 492 1026.52 491.918 1047.82C491.789 1083.4 486.437 1119.23 476.711 1152.66C477.824 1161.2 478.895 1169.75 479.922 1178.29C482.945 1203.36 486.293 1229.53 499.504 1250.79C500.481 1252.36 501.379 1253.98 502.469 1255.49C506.18 1260.65 510.418 1265.25 515.07 1269.38C535.441 1287.47 563.785 1296.45 590.914 1302.65C616.223 1308.44 641.832 1310.76 667.484 1309.57C693.136 1310.76 718.746 1308.44 744.058 1302.65C768.554 1297.05 794.027 1289.17 813.746 1274.37C820.84 1269.04 827.215 1262.84 832.5 1255.49C833.59 1253.98 834.484 1252.37 835.461 1250.8C848.672 1229.53 852.024 1203.36 855.047 1178.29C856.074 1169.75 857.145 1161.2 858.262 1152.66C848.532 1119.23 843.176 1083.4 843.047 1047.82C842.973 1026.52 844.766 1005.3 848.609 984.758Z" fill="#C6CAD6"/>
<path d="M556.465 775.227C606.211 793.766 659.891 801.891 712.887 798.239C765.578 794.61 817.301 779.278 863.848 754.333C850.692 749.446 837.45 744.814 824.067 740.599C744.086 775.63 653.52 784.943 568.04 759.685C549.72 754.275 531.841 747.462 514.493 739.49C509.145 741.146 503.845 742.931 498.532 744.697C512.469 759.289 542.668 770.082 556.465 775.227Z" fill="#A1A8C3"/>
<path d="M604.125 905.172C642.863 922.11 684.84 924.699 724.859 910.485C765.273 896.13 799.3 868.844 833.597 843.938C864.738 821.317 898.988 798.438 936.558 789.512C935.437 788.727 934.296 787.953 933.156 787.192C863.609 804.255 808.133 868.723 744.863 899.383C703.195 919.574 657.656 923.188 614.101 906.586C572.785 890.832 538.214 861.891 502.64 836.449C472.554 814.933 439.261 794.133 403.062 786.336C402.081 786.981 401.136 787.652 400.171 788.313C434.468 795.114 466.187 813.868 494.87 833.989C530.359 858.883 564.082 887.66 604.125 905.172Z" fill="#1F2A50"/>
<path d="M756.625 16.0127C715.609 -3.96027 660.027 -1.28427 618.469 4.94673C595.946 8.32173 574.5 18.9777 558.446 35.1697C550.317 43.3727 544.458 52.2087 540.2 61.5647C508.872 70.1347 479.087 81.8887 452.028 96.8657C378.856 137.37 324.509 201.085 296.462 272.124C284.607 302.155 278.001 333.464 276.052 365.105C292.751 380.714 310.478 395.183 329.033 408.503C330.412 398.319 332.56 388.21 335.51 378.226C336.799 366.199 341.217 354.863 346.006 343.542C356.807 317.995 371.666 294.198 389.623 273.069C420.826 236.362 465.697 202.514 513.65 189.331C514.306 189.151 514.966 189.022 515.619 188.854C512.603 177.444 510.904 165.702 510.873 153.862C510.81 125.444 519.928 97.4087 535.603 73.7757C534.712 76.7137 533.943 79.6977 533.283 82.7207C535.099 75.6777 537.252 68.7287 539.963 61.9907C537.326 73.1627 535.135 84.3577 533.588 95.6387C532.092 106.92 531.002 118.244 530.584 129.604C530.072 140.956 530.244 152.331 530.846 163.694C531.467 174.44 532.721 185.159 534.365 195.874C534.525 196.792 534.709 197.706 534.877 198.62C536.139 205.518 537.693 212.323 539.588 218.972C559.682 234.66 587.483 241.074 613.389 238.89C668.987 234.214 718.522 194.808 742.143 144.265C760.672 104.61 764.313 59.2937 756.625 16.0127Z" fill="#EBF2E5"/>
<path d="M1045.91 272.122C1017.86 201.083 963.519 137.368 890.343 96.8637C863.253 81.8717 833.464 70.1217 802.167 61.5547C802.268 61.7847 802.374 62.0157 802.476 62.2457C802.726 62.5267 802.98 62.8007 803.23 63.0817C803.148 62.7187 803.085 62.3517 802.992 61.9877C803.187 62.4567 803.336 62.9367 803.515 63.4057C836.046 100.82 856.956 148.101 863.722 197.238C897.503 216.222 927.546 241.89 951.331 272.488C965.612 290.855 977.569 310.98 987.065 332.215C990.694 338.551 994.014 344.988 996.971 351.508C1001.33 361.098 1004.85 370.867 1007.62 380.746C1026.87 364.379 1044.99 346.719 1061.82 327.894C1058.34 308.978 1053.09 290.317 1045.91 272.122Z" fill="#EBF2E5"/>
<path d="M1061.82 327.895C1045 346.719 1026.87 364.379 1007.62 380.747C1021.9 431.571 1015.64 485.517 993.168 535.36C975.727 594.798 929.797 642.751 877.637 676.469C783.817 737.121 663.305 758.145 556.758 724.543C475.43 698.887 404.485 640.129 364.899 565.203C335.321 516.226 321.848 461.418 329.032 408.5C310.477 395.18 292.751 380.711 276.051 365.102C268.735 483.614 327.473 606.883 427.227 685.864C454.036 707.091 483.395 725.204 514.493 739.489C531.841 747.462 549.72 754.274 568.04 759.684C653.52 784.942 744.087 775.629 824.067 740.598C856.512 726.383 887.231 707.961 915.141 685.864C1025.39 598.567 1085.59 457.173 1061.82 327.895Z" fill="#C6CAD6"/>
<path d="M480.648 219.144C497.589 210.996 515.863 204.257 534.875 198.617C534.707 197.703 534.523 196.789 534.363 195.871C534.461 196.492 534.519 197.109 534.617 197.726C531.148 186.769 529 175.41 527.676 163.968C526.301 152.519 526.02 140.952 526.434 129.433C526.95 117.913 528.172 106.413 530.438 95.1094C531.254 90.9494 532.227 86.8244 533.282 82.7184C533.942 79.6954 534.712 76.7104 535.602 73.7734C519.926 97.4064 510.809 125.441 510.872 153.859C510.903 165.699 512.602 177.441 515.618 188.851C514.966 189.019 514.305 189.148 513.649 189.328C465.696 202.512 420.825 236.359 389.622 273.066C371.665 294.195 356.806 317.992 346.005 343.539C341.216 354.859 336.798 366.195 335.509 378.223C338.169 369.207 341.411 360.281 345.396 351.508C369.777 297.851 417.031 249.729 480.648 219.144Z" fill="#C6CAD6"/>
<path d="M883.281 663.995C799.199 721.831 685.972 746.558 581.508 719.749C537.039 708.339 495.403 688.972 459.086 663.995C444.067 653.667 430.164 642.304 417.395 630.163C396.594 610.382 378.938 588.456 364.899 565.202C404.485 640.128 475.43 698.886 556.758 724.542C663.305 758.143 783.817 737.12 877.637 676.468C929.797 642.749 975.727 594.796 993.168 535.359C970.973 584.573 933.008 629.788 883.281 663.995Z" fill="#A1A8C3"/>
<path d="M969.293 362.254C954.508 317.441 924.285 270.566 877.469 264.68C833.961 259.203 795.735 290.953 754.879 306.852C712.477 323.352 661.305 321.227 618.617 302.469C614.273 301.129 610.008 299.578 605.832 297.821C593.742 292.719 582.449 285.794 572.539 276.762C556.141 261.821 545.945 241.348 539.586 218.969C537.692 212.321 536.137 205.516 534.875 198.617C515.863 204.258 497.59 210.996 480.648 219.144C417.031 249.73 369.777 297.851 345.394 351.507C341.41 360.28 338.168 369.206 335.507 378.222C332.558 388.206 330.409 398.316 329.03 408.499C321.846 461.417 335.319 516.226 364.897 565.202C378.936 588.456 396.592 610.382 417.393 630.163C455.104 652.761 496.28 669.819 538.651 679.284C629.631 699.6 737.471 689.214 823.428 652.936C876.463 630.553 924.991 593.538 955.756 544.389C990.832 488.367 989.578 423.742 969.293 362.254Z" fill="#20325F"/>
<path d="M987.066 332.214C960.851 286.417 917.605 246.015 861.718 219.144C844.765 210.988 826.495 204.249 807.491 198.613C801.987 228.726 791.1 257.383 769.827 276.761C743.179 301.042 706.573 310.155 671.183 309.288C653.499 309.722 635.511 307.659 618.617 302.468C661.305 321.226 712.476 323.351 754.879 306.851C795.735 290.953 833.961 259.202 877.469 264.679C924.285 270.566 954.508 317.441 969.293 362.253C989.578 423.741 990.832 488.366 955.758 544.39C924.992 593.538 876.465 630.554 823.43 652.937C737.473 689.214 629.633 699.601 538.653 679.285C496.282 669.82 455.106 652.762 417.395 630.164C430.165 642.305 444.067 653.668 459.086 663.996C495.402 688.973 537.039 708.34 581.508 719.75C685.973 746.559 799.199 721.832 883.281 663.996C933.008 629.789 970.972 584.574 993.168 535.359C1015.64 485.515 1021.9 431.57 1007.62 380.746C1004.85 370.867 1001.34 361.098 996.973 351.508C994.016 344.987 990.695 338.55 987.066 332.214Z" fill="#1F2A50"/>
<path d="M939.113 345.034C937.718 343.124 936.175 341.1 934.492 339.007C918.207 318.718 889.238 291.78 864.012 294.194C833.602 297.096 800.274 327.096 772.762 339.995C737.766 356.405 700.407 368.929 661.481 370.292C617.758 371.823 574.075 359.065 536.383 336.851C521.278 327.945 506.453 317.312 489.145 314.519C463.727 310.418 438.813 324.164 418.895 340.476C402.879 353.589 388.282 368.992 379.149 387.57C358.653 429.265 381.876 469.742 416.528 500.785C410.637 480.234 411.571 457.668 420.391 438.152C458.2 354.554 580.914 373.683 592.723 463.691C597.563 500.578 577.043 539.449 543.86 556.265C539.731 558.359 535.438 560.085 531.04 561.468C624.853 589.827 726.474 593.277 820.567 564.46C821.161 564.276 821.809 564.081 822.419 563.897C805.31 560.713 789.071 552.963 776.481 540.917C749.598 515.202 741.235 472.054 756.563 438.151C794.368 354.553 917.083 373.682 928.895 463.69C931.727 485.284 925.821 507.522 913.825 525.655C918.341 522.214 922.388 518.561 925.63 514.612C940.462 496.542 948.607 459.702 953.04 437.194C958.98 407.062 957.727 370.601 939.113 345.034Z" fill="#203A73"/>
<path d="M592.723 463.691C580.914 373.683 458.2 354.554 420.391 438.152C411.571 457.668 410.637 480.234 416.528 500.785C420.872 515.941 428.903 530.008 440.309 540.918C463.848 563.434 500.106 571.176 531.039 561.469C535.437 560.086 539.73 558.36 543.859 556.266C577.043 539.449 597.563 500.578 592.723 463.691Z" fill="#3EC0F0"/>
<path d="M928.895 463.691C917.082 373.683 794.368 354.554 756.563 438.152C741.235 472.054 749.598 515.203 776.481 540.918C789.071 552.965 805.309 560.715 822.419 563.898C841.841 567.507 862.384 565.203 880.032 556.265C893.79 549.292 905.325 538.495 913.825 525.656C925.82 507.523 931.727 485.285 928.895 463.691Z" fill="#3EC0F0"/>
<path d="M526.434 129.433C526.02 140.953 526.301 152.519 527.676 163.968C529 175.409 531.149 186.769 534.617 197.726C534.519 197.109 534.461 196.492 534.363 195.871C532.719 185.156 531.465 174.437 530.844 163.691C530.242 152.328 530.07 140.953 530.582 129.601C531 118.242 532.09 106.917 533.586 95.6363C535.133 84.3553 537.324 73.1593 539.961 61.9883C537.25 68.7263 535.098 75.6763 533.281 82.7183C532.226 86.8233 531.254 90.9483 530.437 95.1093C528.172 106.413 526.949 117.913 526.434 129.433Z" fill="#203A73"/>
<path d="M803.231 63.0823C803.36 63.6293 803.454 64.1723 803.579 64.7153C810.79 82.2383 812.614 101.543 812.798 122.039C812.864 129.18 812.821 136.715 812.626 144.457C812.603 150.867 812.45 157.281 812.114 163.691C811.462 175.058 810.134 186.39 808.337 197.726C811.806 186.769 813.958 175.41 815.278 163.968C816.653 152.519 816.938 140.952 816.524 129.433C816.005 117.913 814.79 106.413 812.524 95.1093C810.395 84.3043 807.512 73.6403 803.516 63.4063C803.336 62.9373 803.188 62.4573 802.993 61.9883C803.086 62.3523 803.148 62.7193 803.231 63.0823Z" fill="#203A73"/>
<path d="M927.449 1903.92C911.461 1907.46 896.562 1915.33 884.281 1926.12C881.832 1928.27 877.711 1933.34 873.218 1939.48C872.675 1940.21 872.14 1940.94 871.597 1941.7C893.495 1944.23 915.519 1945.75 937.495 1944.07C960.163 1942.35 978.784 1931.72 999.1 1925.85C997.444 1924.32 995.741 1922.84 994.006 1921.39C991.912 1919.65 989.772 1917.96 987.572 1916.35C968.668 1902.58 950.773 1898.77 927.449 1903.92Z" fill="#203A73"/>
<path d="M434.66 1934.19C437.933 1931.39 441.629 1926.1 445.605 1920.41C434.875 1912.57 422.625 1906.79 409.628 1903.92C405.581 1903.02 401.745 1902.5 397.987 1902.15C380.108 1900.49 365.132 1904.97 349.51 1916.35C347.303 1917.96 345.166 1919.65 343.069 1921.4C330.182 1932.12 319.397 1945.39 311.674 1960.26C311.494 1960.62 311.401 1960.92 311.24 1961.25C354.078 1967.52 403.242 1961.09 434.66 1934.19Z" fill="#203A73"/>
<path d="M452.797 1926.12C450.5 1924.1 448.082 1922.22 445.606 1920.41C441.629 1926.1 437.934 1931.39 434.661 1934.2C403.243 1961.09 354.079 1967.52 311.243 1961.25C303.165 1978.45 325.36 1977.96 337.489 1979.8C354.309 1982.35 371.27 1983.97 388.27 1984.66C413.469 1985.68 478.008 1981.38 485.032 1978.64C485.251 1978.56 485.419 1978.48 485.524 1978.39C489.414 1975.3 461.266 1933.55 452.797 1926.12Z" fill="#1F2A50"/>
<path d="M1025.4 1960.27C1018.72 1947.38 1009.75 1935.71 999.101 1925.85C978.785 1931.71 960.163 1942.35 937.496 1944.07C915.519 1945.75 893.496 1944.23 871.598 1941.7C863.043 1953.63 853.68 1968.61 851.633 1975.19C851.125 1976.82 851.035 1977.98 851.559 1978.39C851.661 1978.48 851.832 1978.56 852.055 1978.64C852.368 1978.77 852.84 1978.9 853.383 1979.03C864.867 1981.76 924.746 1985.64 948.813 1984.66C965.813 1983.97 982.774 1982.35 999.59 1979.8C1011.96 1977.92 1034.87 1978.51 1025.4 1960.27Z" fill="#1F2A50"/>
<path d="M742.141 144.263C718.52 194.806 668.985 234.212 613.387 238.888C587.481 241.072 559.68 234.658 539.586 218.97C545.945 241.349 556.141 261.822 572.539 276.763C582.449 285.794 593.742 292.72 605.832 297.822C653.34 280.138 696.852 252.236 729.895 214.025C758.77 180.627 778.727 139.232 786.149 95.6617C789.356 76.7867 789.438 58.4077 788.067 39.6307C786.751 38.1227 785.376 36.6347 783.923 35.1697C776.017 27.1927 766.747 20.9427 756.626 16.0137C764.313 59.2937 760.672 104.61 742.141 144.263Z" fill="#C6CAD6"/>
<path d="M951.332 272.488C927.547 241.89 897.504 216.222 863.723 197.238C856.957 148.101 836.047 100.82 803.516 63.4059C807.512 73.6399 810.395 84.3039 812.524 95.1089C814.79 106.414 816.005 117.914 816.524 129.433C816.938 140.953 816.653 152.519 815.278 163.968C813.958 175.409 811.805 186.769 808.337 197.726C810.134 186.39 811.462 175.058 812.114 163.691C812.45 157.281 812.602 150.867 812.626 144.457C812.821 136.715 812.864 129.18 812.798 122.039C812.614 101.543 810.79 82.2379 803.579 64.7149C803.454 64.1719 803.36 63.6289 803.231 63.0819C802.981 62.8009 802.727 62.5269 802.477 62.2459C802.375 62.0159 802.27 61.7849 802.168 61.5549C798.668 53.8749 794.102 46.5429 788.066 39.6289C789.437 58.4059 789.355 76.7849 786.148 95.6599C778.726 139.23 758.769 180.625 729.894 214.023C696.851 252.234 653.339 280.136 605.831 297.82C610.007 299.578 614.272 301.129 618.616 302.468C635.51 307.66 653.499 309.722 671.182 309.288C706.573 310.155 743.178 301.042 769.826 276.761C791.099 257.382 801.986 228.726 807.49 198.613C826.494 204.25 844.763 210.988 861.717 219.144C917.604 246.015 960.85 286.418 987.065 332.214C977.57 310.981 965.613 290.856 951.332 272.488Z" fill="#A1A8C3"/>
<path d="M1257.62 644.831C1253.68 659.19 1246.57 671.859 1236.27 682.59C1235.2 683.699 1234 684.848 1232.91 686.055C1233.54 690.2 1235.37 693.172 1239.17 693.672C1243.98 694.293 1248.47 691.43 1252.48 688.695C1261.24 682.695 1270.46 676.183 1274.64 666.418C1276.26 662.641 1276.98 658.602 1277.34 654.492C1277.49 652.828 1277.6 651.163 1277.65 649.487C1277.7 647.819 1277.72 646.156 1277.73 644.5C1277.85 631.547 1277.85 618.086 1272.37 606.352C1270.29 601.899 1266.61 597.52 1262.3 595.688C1262.65 612.233 1261.98 628.901 1257.62 644.831Z" fill="#1F2A50"/>
<path d="M1294.03 656.711C1297.16 659.582 1300.51 662.223 1304.45 663.727L1305.12 663.965C1310.16 665.645 1316.25 665.047 1319.8 661.141C1320.84 660.008 1321.58 658.668 1322.19 657.258C1322.71 656.043 1323.14 654.777 1323.54 653.516C1327.94 639.629 1331.18 625.364 1333.22 610.93C1334.04 605.133 1336.23 598.078 1332.49 592.911C1331.54 591.606 1330.23 590.536 1328.75 589.77C1328.73 597.309 1323.94 616.781 1321.74 622.273C1319.72 627.293 1316.9 632.528 1311.93 634.637C1307.53 636.508 1302.25 635.578 1297.53 635.992C1296.06 639.871 1294.69 643.78 1293.34 647.698C1293.03 648.6 1292.69 649.488 1292.38 650.39C1291.64 652.633 1292.27 655.121 1294.03 656.711Z" fill="#1F2A50"/>
<path d="M1361.11 636.847C1356.35 643.976 1349.29 648.788 1341.71 652.859C1335.87 656 1329.58 658.336 1323.09 659.679L1323 659.894C1322.61 660.843 1322.45 661.789 1322.47 662.746C1322.57 669.211 1333.54 682.398 1340.7 680.652C1342.6 680.191 1344.07 678.867 1345.34 677.324C1346.08 676.422 1346.78 675.465 1347.4 674.504C1354.68 663.359 1361.96 652.227 1369.24 641.086C1372.9 635.477 1381.42 622.981 1374.48 616.871C1370.02 623.53 1365.56 630.19 1361.11 636.847Z" fill="#1F2A50"/>
<path d="M1400.67 658.594C1396.37 661.965 1392.38 668.321 1388.68 671.446C1382.97 676.274 1376.65 680.368 1369.89 683.571C1364.3 686.212 1358.2 688.29 1352.04 687.79C1348.04 687.458 1344.01 685.829 1341.09 683.13C1340.71 683.685 1340.43 684.286 1340.23 684.907C1338.36 690.774 1344.25 706.02 1351.24 706.626C1353.21 706.794 1355.04 705.954 1356.74 704.849C1357.58 704.302 1358.4 703.716 1359.17 703.111C1369.13 695.267 1379.09 687.435 1389.05 679.588C1394.23 675.516 1406.29 666.394 1400.67 658.594Z" fill="#1F2A50"/>
</svg>
