<svg width="856" height="765" viewBox="0 0 856 765" fill="none" xmlns="http://www.w3.org/2000/svg">
<path d="M830.902 552.77C816.907 520.939 790.032 494.377 757.748 481.303C724.121 467.686 685.51 472.643 650.091 468.082C619.329 464.12 597.134 450.387 578.766 425.971C561.167 402.577 545.387 376.668 516.612 365.846C493.874 357.296 468.024 359.666 445.426 368.576C403.786 384.994 372.335 419.905 345.847 454.683C321.663 486.436 301.938 521.206 257.206 522.34C212.445 523.475 169.833 497.943 124.765 504.708C65.2001 513.65 15.5954 563.235 5.20019 622.267C-4.54179 677.592 19.9043 731.25 61.9015 762.778H783.766C836.686 706.639 864.455 629.087 830.902 552.77Z" fill="url(#paint0_linear_2212_101)"/>
<path d="M178.348 762.778H180.334C194.125 747.621 204.927 729.228 211.795 708.811C222.91 675.766 222.441 641.086 210.476 611.16C204.428 596.036 195.696 581.941 187.251 568.309C178.686 554.485 169.831 540.19 163.82 524.871C161.335 518.537 159.499 511.736 158.394 504.798C157.897 504.733 157.399 504.68 156.9 504.619C158.01 511.805 159.898 518.849 162.469 525.401C168.527 540.843 177.418 555.195 186.017 569.074C194.428 582.652 203.127 596.693 209.127 611.698C220.965 641.305 221.424 675.629 210.418 708.348C203.467 729.019 192.437 747.584 178.348 762.778Z" fill="url(#paint1_linear_2212_101)"/>
<path d="M780.278 699.822C795.152 702.991 809.485 705.834 823.346 707.622C823.584 707.164 823.815 706.703 824.05 706.244C810.073 704.467 795.606 701.603 780.582 698.402C757.706 693.528 732.945 688.252 708.387 688.252C693.181 688.252 678.054 690.275 663.502 695.668C657.989 697.711 652.676 700.302 647.618 703.389C634.48 697.789 621.271 691.676 608.185 684.965C617.68 677.812 627.274 670.808 636.972 664.036C708.959 613.769 775.394 585.271 839.579 577.183C839.45 576.713 839.315 576.243 839.182 575.773C774.827 583.927 708.245 612.497 636.141 662.845C626.238 669.761 616.441 676.918 606.752 684.226C592.037 676.624 577.498 668.269 563.426 659.049C537.904 642.326 507.545 618.455 481.031 586.738C583.775 575.212 688.379 560.689 773.801 503.597C777.045 501.429 780.639 498.873 784.362 495.973C783.949 495.68 783.534 495.392 783.118 495.104C779.55 497.867 776.11 500.308 772.995 502.389C687.594 559.467 582.797 573.878 479.92 585.403C461.185 562.742 444.445 536.124 432.813 505.308C414.692 457.308 415.648 410.203 435.438 376.072C436.297 374.589 437.205 373.13 438.14 371.686C437.313 372.065 436.495 372.458 435.676 372.852C435.167 373.677 434.667 374.506 434.181 375.343C414.173 409.854 413.178 457.411 431.454 505.821C443.024 536.469 459.615 562.982 478.197 585.594C472.242 586.26 466.286 586.918 460.347 587.573C438.925 589.937 416.771 592.383 395.261 595.151C387.409 596.162 379.425 597.342 371.48 598.819C354.448 562.873 335.74 527.805 311.555 497.731C311.21 498.076 310.857 498.41 310.508 498.75C334.485 528.596 353.077 563.402 370.005 599.096C335.352 605.705 301.703 618.129 283.737 647.046C266.957 674.051 266.973 711.38 283.782 757.997C284.363 759.609 284.962 761.199 285.569 762.777H287.124C286.459 761.051 285.797 759.305 285.148 757.504C268.497 711.326 268.437 674.421 284.971 647.811C302.724 619.239 336.188 606.981 370.648 600.452C376.66 613.17 382.468 625.993 388.241 638.738L388.869 640.124C408.916 684.38 429.651 727.089 456.801 762.778H458.612C431.217 727.023 410.365 684.058 390.192 639.526L389.564 638.14C383.841 625.503 378.081 612.789 372.123 600.177C379.915 598.737 387.745 597.583 395.448 596.592C416.945 593.825 439.09 591.38 460.507 589.016C466.761 588.326 473.03 587.634 479.304 586.932C506.069 619.146 536.815 643.348 562.629 660.263C576.549 669.382 590.923 677.659 605.469 685.198C580.776 703.875 556.756 723.525 533.305 742.712C525.185 749.356 516.971 756.068 508.692 762.778H510.994C518.803 756.442 526.557 750.107 534.224 743.835C557.841 724.515 582.03 704.724 606.899 685.937C619.911 692.63 633.047 698.735 646.115 704.326C628.235 715.696 613.665 733.304 604.855 754.685C603.752 757.362 602.788 760.065 601.896 762.778H603.425C604.267 760.251 605.169 757.733 606.197 755.238C615.032 733.799 629.725 716.208 647.741 705.019C684.273 720.539 720.178 732.061 751.029 741.188L752.19 741.531C765.191 745.375 778.488 749.315 790.25 755.643C790.579 755.268 790.909 754.894 791.236 754.518C779.283 748.032 765.79 744.039 752.602 740.139L751.44 739.796C720.903 730.76 685.411 719.38 649.27 704.09C653.979 701.287 658.907 698.92 664.008 697.029C701.668 683.073 743.433 691.972 780.278 699.822Z" fill="url(#paint2_linear_2212_101)"/>
<path d="M65.5406 605.795C71.952 632.039 69.0918 660.38 57.6921 683.555C50.2256 698.735 39.4431 712.476 26.1621 724.277C26.4263 724.689 26.6963 725.096 26.9646 725.504C40.461 713.547 51.4153 699.606 58.995 684.196C70.5428 660.721 73.4425 632.019 66.9504 605.451C61.8785 584.691 51.6824 567.109 37.5955 554.387C37.2814 554.756 36.9696 555.127 36.6595 555.5C50.5119 568.025 60.5436 585.342 65.5406 605.795Z" fill="url(#paint3_linear_2212_101)"/>
<path d="M394.079 273.344C406.725 286.267 412.392 308.036 405.42 328.107C398.669 347.541 383.869 363.639 366.088 373.987C351.782 382.314 333.12 386.907 319.05 378.188C308.536 371.672 303.083 358.888 302.78 346.523C302.477 334.157 306.636 322.106 311.776 310.854C319.021 294.995 328.771 279.615 343.297 269.971C363.32 256.677 381.924 260.923 394.079 273.344Z" fill="url(#paint4_linear_2212_101)"/>
<path d="M226.454 46.7787H121.741V0H226.454V46.7787ZM123.919 44.6013H224.277V2.1774H123.919V44.6013Z" fill="#224A6B"/>
<path d="M158.333 91.5151H53.6201V44.7363H158.333V91.5151ZM55.7975 89.3377H156.155V46.9137H55.7975V89.3377Z" fill="#224A6B"/>
<path d="M822.248 141.36C815.467 118.815 803.542 98.1154 786.47 79.1911C769.364 60.2669 746.034 44.6448 716.48 32.2893C686.926 19.9333 649.375 13.7559 603.827 13.7559C567.494 13.7559 530.465 18.6553 492.74 28.4548C454.98 38.2897 422.228 52.2784 394.447 70.4571L430.607 169.734L411.227 185.434L439.334 193.695C467.08 179.173 492.357 168.628 515.166 162.06C537.94 155.527 562.139 152.26 587.799 152.26C613.424 152.26 632.825 158.438 646.002 170.794C659.18 183.185 665.751 198.061 665.751 215.53C665.751 236.62 658.971 255.331 645.48 271.698C631.921 288.066 616.97 304.611 600.593 321.334C589.224 332.944 578.167 344.945 567.493 357.301C556.819 369.692 547.362 382.936 539.191 397.138C530.985 411.304 524.414 426.571 519.442 442.939C514.436 459.307 511.967 477.663 511.967 498.007C511.967 504.575 512.106 512.387 512.489 521.476C512.552 523.153 512.641 524.787 512.741 526.401H486.169L515.166 546.01H656.155C655.425 541.643 655.078 536.566 655.078 530.742C655.078 524.92 655.078 520.553 655.078 517.641C655.078 505.285 657.581 493.108 662.553 481.107C667.525 469.106 673.784 457.674 681.259 446.738C688.735 435.838 697.079 425.471 706.363 415.672C715.611 405.837 724.512 396.57 733.066 387.836C744.435 376.226 756.188 363.87 768.287 350.769C780.387 337.668 791.096 323.892 800.344 309.335C809.592 294.778 817.242 278.979 823.292 261.865C829.341 244.787 832.401 226.076 832.401 205.696C832.4 185.351 828.993 163.906 822.248 141.36Z" fill="#207BBD"/>
<path d="M557.95 145.334C532.591 145.334 508.676 148.495 486.169 154.818C463.628 161.175 438.648 171.38 411.227 185.434L366.867 66.1662C394.321 48.5734 426.69 35.0351 464.006 25.5167C501.288 16.0331 537.883 11.291 573.79 11.291C618.803 11.291 655.914 17.2699 685.12 29.2276C714.328 41.1853 737.384 56.304 754.29 74.6186C771.161 92.9331 782.947 112.966 789.647 134.785C796.313 156.604 799.681 177.359 799.681 197.048C799.681 216.771 796.657 234.879 790.678 251.407C784.699 267.97 777.14 283.26 768 297.348C758.86 311.436 748.277 324.768 736.319 337.448C724.361 350.127 712.747 362.085 701.511 373.321C693.058 381.774 684.262 390.742 675.121 400.26C665.947 409.744 657.7 419.777 650.312 430.327C642.925 440.91 636.74 451.974 631.826 463.588C626.912 475.202 624.438 486.988 624.438 498.945C624.438 501.763 624.438 505.99 624.438 511.625C624.438 517.26 624.782 522.174 625.504 526.4H486.169C484.726 519.356 483.867 511.453 483.523 502.657C483.145 493.86 483.008 486.301 483.008 479.944C483.008 460.255 485.447 442.49 490.395 426.65C495.308 410.809 501.803 396.034 509.912 382.324C517.987 368.579 527.333 355.762 537.882 343.77C548.431 331.813 559.358 320.199 570.594 308.963C586.779 292.779 601.554 276.766 614.955 260.926C628.287 245.085 634.987 226.977 634.987 206.566C634.987 189.66 628.493 175.263 615.47 163.271C602.447 151.313 583.274 145.334 557.95 145.334Z" fill="#89E4FF"/>
<path d="M665.804 682.865C665.804 708.284 657.575 727.898 641.117 741.735C624.66 755.6 606.061 762.504 585.291 762.504C564.494 762.504 545.894 755.6 529.436 741.735C513.007 727.898 504.778 708.284 504.778 682.865C504.778 657.474 513.007 637.86 529.437 623.995C554.77 602.616 592.249 597.852 621.909 612.857C648.228 626.172 665.804 653.211 665.804 682.865Z" fill="#207BBD"/>
<path d="M638.223 682.864C638.223 708.283 629.994 727.897 613.537 741.734C597.079 755.599 578.48 762.504 557.711 762.504C536.913 762.504 518.313 755.599 501.856 741.734C485.427 727.897 477.198 708.283 477.198 682.864C477.198 657.473 485.427 637.859 501.856 623.994C518.313 610.157 536.913 603.225 557.711 603.225C578.48 603.225 597.079 610.157 613.537 623.994C629.994 637.859 638.223 657.473 638.223 682.864Z" fill="#89E4FF"/>
<path d="M220.83 322.482C222.375 314.24 216.945 306.306 208.703 304.761C200.461 303.216 192.527 308.646 190.982 316.888C189.437 325.131 194.867 333.065 203.109 334.609C211.352 336.154 219.285 330.724 220.83 322.482Z" fill="#47B2FF"/>
<path d="M228.093 351.026C228.962 346.39 225.881 341.923 221.213 341.048C216.544 340.173 212.055 343.222 211.186 347.858C210.318 352.494 213.398 356.961 218.067 357.836C222.735 358.711 227.224 355.662 228.093 351.026Z" fill="#47B2FF"/>
<path d="M210.707 285.525C234.053 262.178 234.053 224.326 210.707 200.979C187.36 177.633 149.508 177.633 126.161 200.979C102.814 224.326 102.814 262.178 126.161 285.525C149.508 308.871 187.36 308.871 210.707 285.525Z" fill="#47B2FF"/>
<path d="M145.483 250.785C149.643 250.785 153.015 247.413 153.015 243.253C153.015 239.093 149.643 235.721 145.483 235.721C141.323 235.721 137.951 239.093 137.951 243.253C137.951 247.413 141.323 250.785 145.483 250.785Z" fill="white"/>
<path d="M168.439 250.785C172.599 250.785 175.971 247.413 175.971 243.253C175.971 239.093 172.599 235.721 168.439 235.721C164.279 235.721 160.907 239.093 160.907 243.253C160.907 247.413 164.279 250.785 168.439 250.785Z" fill="white"/>
<path d="M191.394 250.785C195.554 250.785 198.926 247.413 198.926 243.253C198.926 239.093 195.554 235.721 191.394 235.721C187.234 235.721 183.862 239.093 183.862 243.253C183.862 247.413 187.234 250.785 191.394 250.785Z" fill="white"/>
<path d="M125.613 732.571L131.199 754.105C132.656 759.721 138.085 763.516 144.093 763.108C162.408 761.863 200.462 757.376 222.302 741.278L216.094 710.243C186.064 708.546 157.98 710.216 133.663 718.402C127.574 720.453 124.053 726.556 125.613 732.571Z" fill="#207BBD"/>
<path d="M160.613 749.712C160.296 749.712 160.004 749.503 159.914 749.182L152.414 722.327C152.306 721.941 152.532 721.541 152.918 721.433C153.307 721.326 153.705 721.551 153.813 721.937L161.313 748.791C161.421 749.178 161.195 749.578 160.809 749.686C160.743 749.704 160.677 749.712 160.613 749.712Z" fill="white"/>
<path d="M176.822 746.084C176.505 746.084 176.213 745.874 176.123 745.553L168.623 718.699C168.516 718.313 168.741 717.913 169.127 717.805C169.516 717.696 169.914 717.922 170.022 718.309L177.522 745.163C177.63 745.549 177.404 745.949 177.018 746.057C176.952 746.075 176.887 746.084 176.822 746.084Z" fill="white"/>
<path d="M195.649 616.166L125.854 636.88L177.687 707.9L252.1 713.818L354.74 670.417L315.737 611.727L195.649 616.166Z" fill="#89E4FF"/>
<path d="M281.694 626.03C434.969 580.656 459.602 716.12 220.453 740.78C212.006 731.275 202.134 714.782 198.214 700.996L324.506 642.634L281.694 626.03Z" fill="#89E4FF"/>
<path d="M288.205 723.114C281.037 720.819 274.167 716.283 274.167 716.283L249.534 724.01L255.179 750.807L280.769 756.007C288.564 741.748 289.02 730.041 288.205 723.114Z" fill="#F9B384"/>
<path d="M198.761 701.936L197.667 700.054C224.014 684.741 291.501 647.956 348.999 637.107L349.402 639.248C292.236 650.034 225.011 686.681 198.761 701.936Z" fill="#FCFFFE"/>
<path d="M195.649 616.166C52.9794 589.04 16.0292 726.148 255.179 750.808C263.626 741.303 270.248 730.071 274.167 716.285C237.432 691.704 196.358 668.342 151.342 646.086L195.649 616.166Z" fill="#89E4FF"/>
<path d="M273.583 717.203C266.796 712.884 259.724 708.317 252.238 703.483C214.655 679.217 172.057 651.714 135.866 636.031L136.731 634.033C173.088 649.788 215.765 677.343 253.418 701.654C260.902 706.486 267.971 711.051 274.751 715.366L273.583 717.203Z" fill="#FCFFFE"/>
<path d="M90.973 684.147L89.0674 683.095C94.4226 673.4 103 666.86 114.562 663.658L115.143 665.756C104.012 668.839 96.1059 674.855 90.973 684.147Z" fill="#FCFFFE"/>
<path d="M388.745 675.893C383.612 666.601 375.706 660.586 364.574 657.502L365.155 655.404C376.718 658.607 385.295 665.146 390.65 674.841L388.745 675.893Z" fill="#FCFFFE"/>
<path d="M241.82 749.603L240.228 748.117C251.641 735.894 258.65 722.991 261.657 708.67L263.788 709.117C260.697 723.839 253.511 737.082 241.82 749.603Z" fill="#FCFFFE"/>
<path d="M359.358 715.133C341.08 703.84 305.644 723.353 296.748 724.34C294.155 724.627 291.155 724.06 288.205 723.115C289.019 730.042 288.564 741.749 280.769 756.007L285.116 756.89C285.116 756.89 315.165 767.905 347.042 761.494C376.464 755.575 373.728 724.011 359.358 715.133Z" fill="#207BBD"/>
<path d="M334.442 752.071C334.37 752.071 334.297 752.06 334.223 752.037C333.841 751.916 333.629 751.509 333.75 751.127C335.922 744.25 336.869 730.722 330.579 721.638C330.351 721.308 330.434 720.856 330.763 720.628C331.091 720.399 331.544 720.481 331.772 720.811C338.359 730.325 337.391 744.415 335.134 751.563C335.036 751.873 334.751 752.071 334.442 752.071Z" fill="white"/>
<path d="M320.108 754.793C320.035 754.793 319.962 754.782 319.889 754.76C319.507 754.639 319.295 754.231 319.416 753.849C321.587 746.973 322.535 733.445 316.245 724.36C316.017 724.03 316.099 723.578 316.428 723.35C316.757 723.122 317.209 723.204 317.438 723.533C324.025 733.048 323.057 747.137 320.799 754.286C320.702 754.595 320.416 754.793 320.108 754.793Z" fill="white"/>
<path d="M170.408 439.383C170.408 439.383 206.339 408.83 205.008 403.024C204.057 398.874 193.879 404.959 193.879 404.959C193.879 404.959 208.153 388.023 207.427 385.967C206.13 382.292 196.258 389.142 196.258 389.142C196.258 389.142 202.931 379.538 199.741 377.973C196.551 376.408 189.596 382.327 189.596 382.327C189.596 382.327 193.659 376.994 191.75 375.595C189.841 374.196 181.605 379.949 181.605 379.949C181.605 379.949 184.561 373.225 178.282 375.774C172.004 378.323 127.979 418.724 127.979 418.724L170.408 439.383Z" fill="#F9B384"/>
<path d="M185.109 403.145C184.934 403.145 184.759 403.083 184.619 402.956C178.452 397.321 175.733 395.953 168.928 393.859C168.545 393.742 168.33 393.336 168.448 392.952C168.566 392.569 168.972 392.353 169.355 392.472C176.406 394.64 179.221 396.056 185.599 401.884C185.895 402.154 185.916 402.614 185.646 402.909C185.502 403.066 185.306 403.145 185.109 403.145Z" fill="#E28B6D"/>
<path d="M174.283 419.718C174.25 419.718 174.216 419.716 174.182 419.711C173.785 419.655 173.508 419.288 173.564 418.892C174.27 413.84 175.86 410.682 178.426 409.24C180.619 408.006 183.473 408.133 186.909 409.616C187.277 409.775 187.446 410.202 187.287 410.57C187.129 410.938 186.701 411.109 186.333 410.949C183.337 409.654 180.916 409.505 179.137 410.505C177.023 411.694 175.631 414.583 175.001 419.092C174.95 419.455 174.64 419.718 174.283 419.718Z" fill="#E28B6D"/>
<path d="M172.589 389.173C172.396 389.173 172.203 389.096 172.061 388.945C171.785 388.652 171.799 388.193 172.091 387.919L181.107 379.421C181.398 379.144 181.858 379.16 182.133 379.451C182.408 379.743 182.394 380.202 182.103 380.477L173.087 388.975C172.947 389.108 172.768 389.173 172.589 389.173Z" fill="#E28B6D"/>
<path d="M180.936 392.075C180.755 392.075 180.574 392.009 180.433 391.873C180.144 391.595 180.135 391.136 180.412 390.847L189.072 381.824C189.35 381.533 189.809 381.524 190.099 381.803C190.388 382.08 190.397 382.54 190.12 382.829L181.46 391.852C181.317 392 181.126 392.075 180.936 392.075Z" fill="#E28B6D"/>
<path d="M189.463 397.156C189.286 397.156 189.109 397.092 188.969 396.961C188.676 396.688 188.659 396.228 188.933 395.935L195.727 388.646C196.001 388.354 196.46 388.337 196.753 388.61C197.047 388.884 197.063 389.343 196.789 389.636L189.995 396.925C189.851 397.078 189.658 397.156 189.463 397.156Z" fill="#E28B6D"/>
<path d="M306.136 643.743L174.766 648.823L160.25 529.066C160.25 529.066 204.229 487.352 221.15 471.99L249.714 470.525C338.338 510.809 323.826 561.122 306.136 643.743Z" fill="#207BBD"/>
<path d="M249.715 470.525C249.715 470.525 351.107 479.196 383.071 548.663C414.349 616.635 285.814 640.839 285.814 640.839L249.715 470.525Z" fill="#207BBD"/>
<path d="M133.817 485.412L175.716 434.424L136.535 410.68C120.191 422.044 88.5859 447.784 61.8015 476.932C55.8894 483.366 51.2716 490.881 48.9455 499.155C46.9609 506.217 46.6003 513.191 47.7157 520.02C50.623 537.82 64.6246 551.556 83.3148 553.744C99.2772 555.613 160.25 550.841 209.604 536.325L224.12 480.299C216.661 476.066 161.223 475.331 133.817 485.412Z" fill="#207BBD"/>
<g opacity="0.8">
<path d="M334.329 498.095C334.548 498.045 334.767 497.996 334.985 497.945C334.527 497.674 334.067 497.41 333.608 497.144C326.177 498.854 318.51 500.603 310.953 501.514C306.412 502.061 291.237 503.063 286.802 492.953C284.596 487.923 286.266 482.329 288.761 478.403C288.397 478.297 288.036 478.195 287.674 478.092C285.118 482.251 283.478 488.086 285.806 493.39C290.54 504.189 306.353 503.166 311.084 502.594C318.859 501.658 326.724 499.848 334.329 498.095Z" fill="white"/>
<path d="M381.648 576.442C376.804 574.57 371.8 572.636 366.539 573.131C357.311 574.004 349.415 583.128 348.936 593.472C348.609 600.526 351.304 607.917 356.44 614.418C356.75 614.225 357.058 614.031 357.365 613.835C352.344 607.518 349.708 600.346 350.024 593.524C350.479 583.7 357.933 575.038 366.641 574.215C371.643 573.752 376.312 575.548 381.255 577.457C383.019 578.138 384.813 578.825 386.636 579.409C386.73 579.059 386.821 578.707 386.906 578.352C385.129 577.781 383.375 577.109 381.648 576.442Z" fill="white"/>
<path d="M125.731 541.818C119.401 536.583 109.565 535.184 98.7501 537.979C89.1121 540.473 80.8426 545.41 75.1616 551.945C75.535 552.066 75.8996 552.202 76.2782 552.312C81.8053 546.113 89.7665 541.427 99.0219 539.034C109.494 536.323 118.978 537.647 125.037 542.657C127.917 545.038 129.954 548.13 131.434 551.467C131.808 551.425 132.183 551.381 132.559 551.338C131.01 547.748 128.851 544.397 125.731 541.818Z" fill="white"/>
<path d="M68.5054 469.813C80.3667 466.866 91.9412 462.727 102.617 456.577C106.651 454.254 111.206 451.291 114.409 446.942C117.817 442.314 118.949 436.803 117.438 432.203C116.845 430.399 115.796 428.815 114.485 427.545C114.207 427.772 113.927 428.002 113.647 428.232C114.872 429.397 115.853 430.866 116.404 432.544C117.805 436.809 116.732 441.951 113.533 446.296C110.449 450.483 106.01 453.367 102.074 455.633C92.0045 461.434 81.1128 465.446 69.925 468.344C69.4506 468.831 68.978 469.322 68.5054 469.813Z" fill="white"/>
</g>
<path d="M258.994 443.9L258.975 445.758L258.681 474.634L258.644 477.762C258.589 482.658 256.583 487.093 253.344 490.313C250.123 493.516 245.688 495.522 240.774 495.558C230.873 495.613 222.776 487.663 222.684 477.744L222.334 442.059L258.994 443.9Z" fill="#F9B384"/>
<path d="M258.976 445.76L258.681 474.635C242.633 468.102 236.026 450.728 236.026 450.728L258.976 445.76Z" fill="#102048"/>
<path d="M265.325 395.37C271.076 402.272 287.869 441.38 270.846 454.722C251.689 469.736 222.536 445.06 222.536 445.06L218.625 399.511L243.93 392.84L265.325 395.37Z" fill="#F9B384"/>
<path d="M205.733 392.861C205.733 392.861 149.605 422.136 195.371 506.52C201.249 517.358 214.268 522.089 225.406 516.801C237.354 511.128 241.878 496.532 235.39 485.006C227.904 471.707 220.678 454.582 223.763 441.839L205.733 392.861Z" fill="#102048"/>
<path d="M221.763 417.453C227.693 411.523 227.693 401.91 221.763 395.981C215.834 390.051 206.221 390.051 200.291 395.981C194.362 401.91 194.362 411.523 200.291 417.453C206.221 423.382 215.834 423.382 221.763 417.453Z" fill="#FBC343"/>
<path d="M229.712 424.962C228.072 415.49 227.072 408.994 236.646 404.112C236.646 404.112 270.386 410.247 276.827 397.517C283.268 384.788 273.453 364.698 252.903 378.653C200.299 368.378 193.244 417.608 209.194 434.018L224.936 431.602C228.104 431.116 230.259 428.12 229.712 424.962Z" fill="#102048"/>
<path d="M255.835 427.232C257.074 427.232 258.078 426.228 258.078 424.989C258.078 423.75 257.074 422.746 255.835 422.746C254.597 422.746 253.592 423.75 253.592 424.989C253.592 426.228 254.597 427.232 255.835 427.232Z" fill="#102048"/>
<path d="M271.018 419.756C272.257 419.756 273.261 418.751 273.261 417.512C273.261 416.274 272.257 415.27 271.018 415.27C269.78 415.27 268.775 416.274 268.775 417.512C268.775 418.751 269.78 419.756 271.018 419.756Z" fill="#102048"/>
<path d="M269.466 431.893C269.308 431.893 269.151 431.835 269.029 431.718C268.774 431.476 268.764 431.075 269.006 430.82C269.905 429.873 270.891 428.542 270.477 427.577C270.047 426.575 268.229 426.142 267.396 426.142C265.606 426.142 264.747 422.958 264.593 422.32C264.511 421.979 264.72 421.636 265.061 421.554C265.401 421.469 265.745 421.68 265.828 422.022C266.154 423.367 266.894 424.872 267.396 424.872C268.252 424.872 270.872 425.276 271.644 427.076C272.195 428.361 271.618 429.915 269.927 431.695C269.801 431.827 269.634 431.893 269.466 431.893Z" fill="#102048"/>
<path d="M269.58 440.404C269.458 440.404 269.335 440.369 269.226 440.295C265.003 437.445 260.738 439.835 260.695 439.859C260.392 440.034 260.004 439.93 259.828 439.625C259.653 439.322 259.758 438.933 260.062 438.758C260.264 438.642 265.063 435.953 269.936 439.243C270.226 439.439 270.303 439.834 270.107 440.125C269.984 440.306 269.784 440.404 269.58 440.404Z" fill="#102048"/>
<path d="M254.853 415.274C256.129 417.676 253.905 418.158 251.3 419.542C248.695 420.926 246.027 421.433 245.419 420.287C244.81 419.142 246.428 417.091 249.034 415.707C251.639 414.323 253.865 413.415 254.853 415.274Z" fill="#102048"/>
<path d="M264.355 410.94C264.915 413.083 266.514 412.144 268.839 411.536C271.165 410.927 273.043 409.759 272.776 408.737C272.508 407.714 270.406 407.378 268.08 407.987C265.755 408.595 263.92 409.28 264.355 410.94Z" fill="#102048"/>
<path opacity="0.4" d="M249.991 440.314C252.676 437.837 252.845 433.653 250.369 430.968C247.892 428.282 243.707 428.113 241.022 430.59C238.337 433.067 238.168 437.251 240.644 439.936C243.121 442.621 247.306 442.791 249.991 440.314Z" fill="#EB5D60"/>
<path d="M228.425 441.661C231.447 437.744 230.289 431.785 225.839 428.351C221.388 424.917 215.33 425.308 212.308 429.225C209.286 433.141 210.444 439.1 214.894 442.535C219.345 445.969 225.403 445.578 228.425 441.661Z" fill="#F9B384"/>
<path d="M224.302 438.798C223.952 438.798 223.667 438.514 223.667 438.163C223.667 436.288 222.753 434.555 221.223 433.526C219.914 432.645 218.353 432.439 217.049 432.971C216.724 433.101 216.353 432.947 216.221 432.622C216.089 432.297 216.244 431.927 216.569 431.794C218.265 431.103 220.27 431.355 221.932 432.472C223.814 433.736 224.938 435.864 224.938 438.163C224.937 438.514 224.653 438.798 224.302 438.798Z" fill="#102048"/>
<path d="M133.275 484.897L110.358 509.688L111.424 510.673L134.341 485.882L133.275 484.897Z" fill="#102048"/>
<path d="M294.735 591.456L294.312 590.068C310.995 584.983 327.186 578.9 341.859 560.551L342.992 561.457C328.061 580.131 311.645 586.303 294.735 591.456Z" fill="#102048"/>
<path d="M304.878 535.244H162.959C157.855 535.244 153.718 539.72 153.718 545.242V646.567C153.718 652.089 157.855 656.565 162.959 656.565H304.879C309.983 656.565 314.12 652.089 314.12 646.567V545.242C314.12 539.72 309.982 535.244 304.878 535.244Z" fill="#C7EAFE"/>
<path d="M241.411 589.499C241.95 589.499 242.387 589.972 242.387 590.555V601.252C242.387 601.835 241.95 602.308 241.411 602.308H226.427C225.888 602.308 225.452 601.835 225.452 601.252V590.555C225.452 589.972 225.888 589.499 226.427 589.499H241.411ZM241.411 586.596H226.427C224.289 586.596 222.548 588.371 222.548 590.555V601.252C222.548 603.435 224.289 605.211 226.427 605.211H241.411C243.55 605.211 245.29 603.435 245.29 601.252V590.555C245.29 588.371 243.55 586.596 241.411 586.596Z" fill="#1F3C88"/>
<path d="M855.676 761.326H0V764.229H855.676V761.326Z" fill="#102048"/>
<defs>
<linearGradient id="paint0_linear_2212_101" x1="424.293" y1="360.525" x2="424.293" y2="762.778" gradientUnits="userSpaceOnUse">
<stop stop-color="#2B4555"/>
<stop offset="1" stop-color="#121B28"/>
</linearGradient>
<linearGradient id="paint1_linear_2212_101" x1="188.352" y1="504.619" x2="188.352" y2="762.778" gradientUnits="userSpaceOnUse">
<stop stop-color="#2B4555"/>
<stop offset="1" stop-color="#121B28"/>
</linearGradient>
<linearGradient id="paint2_linear_2212_101" x1="555.371" y1="371.686" x2="555.371" y2="762.778" gradientUnits="userSpaceOnUse">
<stop stop-color="#2B4555"/>
<stop offset="1" stop-color="#121B28"/>
</linearGradient>
<linearGradient id="paint3_linear_2212_101" x1="48.2548" y1="554.387" x2="48.2548" y2="725.504" gradientUnits="userSpaceOnUse">
<stop stop-color="#2B4555"/>
<stop offset="1" stop-color="#121B28"/>
</linearGradient>
<linearGradient id="paint4_linear_2212_101" x1="355.6" y1="261.807" x2="355.6" y2="382.887" gradientUnits="userSpaceOnUse">
<stop stop-color="#2B4555"/>
<stop offset="1" stop-color="#121B28"/>
</linearGradient>
</defs>
</svg>
